G04 #@! TF.GenerationSoftware,KiCad,Pcbnew,5.0.1*
G04 #@! TF.CreationDate,2019-08-26T08:25:50-04:00*
G04 #@! TF.ProjectId,ESP32-Zip-Panelized,45535033322D5A69702D50616E656C69,rev?*
G04 #@! TF.SameCoordinates,Original*
G04 #@! TF.FileFunction,Legend,Bot*
G04 #@! TF.FilePolarity,Positive*
%FSLAX46Y46*%
G04 Gerber Fmt 4.6, Leading zero omitted, Abs format (unit mm)*
G04 Created by KiCad (PCBNEW 5.0.1) date Mon 26 Aug 2019 08:25:50 AM EDT*
%MOMM*%
%LPD*%
G01*
G04 APERTURE LIST*
%ADD10C,0.250000*%
%ADD11C,0.300000*%
%ADD12C,0.010000*%
%ADD13C,0.120000*%
%ADD14C,0.150000*%
G04 APERTURE END LIST*
D10*
X81381904Y-61254761D02*
X81239047Y-61302380D01*
X81000952Y-61302380D01*
X80905714Y-61254761D01*
X80858095Y-61207142D01*
X80810476Y-61111904D01*
X80810476Y-61016666D01*
X80858095Y-60921428D01*
X80905714Y-60873809D01*
X81000952Y-60826190D01*
X81191428Y-60778571D01*
X81286666Y-60730952D01*
X81334285Y-60683333D01*
X81381904Y-60588095D01*
X81381904Y-60492857D01*
X81334285Y-60397619D01*
X81286666Y-60350000D01*
X81191428Y-60302380D01*
X80953333Y-60302380D01*
X80810476Y-60350000D01*
X80381904Y-61302380D02*
X80381904Y-60302380D01*
X80143809Y-60302380D01*
X80000952Y-60350000D01*
X79905714Y-60445238D01*
X79858095Y-60540476D01*
X79810476Y-60730952D01*
X79810476Y-60873809D01*
X79858095Y-61064285D01*
X79905714Y-61159523D01*
X80000952Y-61254761D01*
X80143809Y-61302380D01*
X80381904Y-61302380D01*
X78858095Y-61302380D02*
X79429523Y-61302380D01*
X79143809Y-61302380D02*
X79143809Y-60302380D01*
X79239047Y-60445238D01*
X79334285Y-60540476D01*
X79429523Y-60588095D01*
X63576639Y-28945648D02*
X63719496Y-28898029D01*
X63957591Y-28898029D01*
X64052829Y-28945648D01*
X64100448Y-28993267D01*
X64148067Y-29088505D01*
X64148067Y-29183743D01*
X64100448Y-29278981D01*
X64052829Y-29326600D01*
X63957591Y-29374219D01*
X63767115Y-29421838D01*
X63671877Y-29469457D01*
X63624258Y-29517076D01*
X63576639Y-29612314D01*
X63576639Y-29707552D01*
X63624258Y-29802790D01*
X63671877Y-29850410D01*
X63767115Y-29898029D01*
X64005210Y-29898029D01*
X64148067Y-29850410D01*
X64576639Y-28898029D02*
X64576639Y-29898029D01*
X64814734Y-29898029D01*
X64957591Y-29850410D01*
X65052829Y-29755171D01*
X65100448Y-29659933D01*
X65148067Y-29469457D01*
X65148067Y-29326600D01*
X65100448Y-29136124D01*
X65052829Y-29040886D01*
X64957591Y-28945648D01*
X64814734Y-28898029D01*
X64576639Y-28898029D01*
X66100448Y-28898029D02*
X65529020Y-28898029D01*
X65814734Y-28898029D02*
X65814734Y-29898029D01*
X65719496Y-29755171D01*
X65624258Y-29659933D01*
X65529020Y-29612314D01*
X81561904Y-74104761D02*
X81419047Y-74152380D01*
X81180952Y-74152380D01*
X81085714Y-74104761D01*
X81038095Y-74057142D01*
X80990476Y-73961904D01*
X80990476Y-73866666D01*
X81038095Y-73771428D01*
X81085714Y-73723809D01*
X81180952Y-73676190D01*
X81371428Y-73628571D01*
X81466666Y-73580952D01*
X81514285Y-73533333D01*
X81561904Y-73438095D01*
X81561904Y-73342857D01*
X81514285Y-73247619D01*
X81466666Y-73200000D01*
X81371428Y-73152380D01*
X81133333Y-73152380D01*
X80990476Y-73200000D01*
X80561904Y-74152380D02*
X80561904Y-73152380D01*
X80323809Y-73152380D01*
X80180952Y-73200000D01*
X80085714Y-73295238D01*
X80038095Y-73390476D01*
X79990476Y-73580952D01*
X79990476Y-73723809D01*
X80038095Y-73914285D01*
X80085714Y-74009523D01*
X80180952Y-74104761D01*
X80323809Y-74152380D01*
X80561904Y-74152380D01*
X79609523Y-73247619D02*
X79561904Y-73200000D01*
X79466666Y-73152380D01*
X79228571Y-73152380D01*
X79133333Y-73200000D01*
X79085714Y-73247619D01*
X79038095Y-73342857D01*
X79038095Y-73438095D01*
X79085714Y-73580952D01*
X79657142Y-74152380D01*
X79038095Y-74152380D01*
X81561904Y-71604761D02*
X81419047Y-71652380D01*
X81180952Y-71652380D01*
X81085714Y-71604761D01*
X81038095Y-71557142D01*
X80990476Y-71461904D01*
X80990476Y-71366666D01*
X81038095Y-71271428D01*
X81085714Y-71223809D01*
X81180952Y-71176190D01*
X81371428Y-71128571D01*
X81466666Y-71080952D01*
X81514285Y-71033333D01*
X81561904Y-70938095D01*
X81561904Y-70842857D01*
X81514285Y-70747619D01*
X81466666Y-70700000D01*
X81371428Y-70652380D01*
X81133333Y-70652380D01*
X80990476Y-70700000D01*
X80561904Y-71652380D02*
X80561904Y-70652380D01*
X80323809Y-70652380D01*
X80180952Y-70700000D01*
X80085714Y-70795238D01*
X80038095Y-70890476D01*
X79990476Y-71080952D01*
X79990476Y-71223809D01*
X80038095Y-71414285D01*
X80085714Y-71509523D01*
X80180952Y-71604761D01*
X80323809Y-71652380D01*
X80561904Y-71652380D01*
X79657142Y-70652380D02*
X79038095Y-70652380D01*
X79371428Y-71033333D01*
X79228571Y-71033333D01*
X79133333Y-71080952D01*
X79085714Y-71128571D01*
X79038095Y-71223809D01*
X79038095Y-71461904D01*
X79085714Y-71557142D01*
X79133333Y-71604761D01*
X79228571Y-71652380D01*
X79514285Y-71652380D01*
X79609523Y-71604761D01*
X79657142Y-71557142D01*
X80961904Y-68957142D02*
X81009523Y-69004761D01*
X81152380Y-69052380D01*
X81247619Y-69052380D01*
X81390476Y-69004761D01*
X81485714Y-68909523D01*
X81533333Y-68814285D01*
X81580952Y-68623809D01*
X81580952Y-68480952D01*
X81533333Y-68290476D01*
X81485714Y-68195238D01*
X81390476Y-68100000D01*
X81247619Y-68052380D01*
X81152380Y-68052380D01*
X81009523Y-68100000D01*
X80961904Y-68147619D01*
X80533333Y-69052380D02*
X80533333Y-68052380D01*
X80200000Y-68766666D01*
X79866666Y-68052380D01*
X79866666Y-69052380D01*
X79390476Y-69052380D02*
X79390476Y-68052380D01*
X79152380Y-68052380D01*
X79009523Y-68100000D01*
X78914285Y-68195238D01*
X78866666Y-68290476D01*
X78819047Y-68480952D01*
X78819047Y-68623809D01*
X78866666Y-68814285D01*
X78914285Y-68909523D01*
X79009523Y-69004761D01*
X79152380Y-69052380D01*
X79390476Y-69052380D01*
X83090476Y-66304761D02*
X82947619Y-66352380D01*
X82709523Y-66352380D01*
X82614285Y-66304761D01*
X82566666Y-66257142D01*
X82519047Y-66161904D01*
X82519047Y-66066666D01*
X82566666Y-65971428D01*
X82614285Y-65923809D01*
X82709523Y-65876190D01*
X82900000Y-65828571D01*
X82995238Y-65780952D01*
X83042857Y-65733333D01*
X83090476Y-65638095D01*
X83090476Y-65542857D01*
X83042857Y-65447619D01*
X82995238Y-65400000D01*
X82900000Y-65352380D01*
X82661904Y-65352380D01*
X82519047Y-65400000D01*
X82090476Y-66352380D02*
X82090476Y-65352380D01*
X81852380Y-65352380D01*
X81709523Y-65400000D01*
X81614285Y-65495238D01*
X81566666Y-65590476D01*
X81519047Y-65780952D01*
X81519047Y-65923809D01*
X81566666Y-66114285D01*
X81614285Y-66209523D01*
X81709523Y-66304761D01*
X81852380Y-66352380D01*
X82090476Y-66352380D01*
X80519047Y-66257142D02*
X80566666Y-66304761D01*
X80709523Y-66352380D01*
X80804761Y-66352380D01*
X80947619Y-66304761D01*
X81042857Y-66209523D01*
X81090476Y-66114285D01*
X81138095Y-65923809D01*
X81138095Y-65780952D01*
X81090476Y-65590476D01*
X81042857Y-65495238D01*
X80947619Y-65400000D01*
X80804761Y-65352380D01*
X80709523Y-65352380D01*
X80566666Y-65400000D01*
X80519047Y-65447619D01*
X79614285Y-66352380D02*
X80090476Y-66352380D01*
X80090476Y-65352380D01*
X79280952Y-66352380D02*
X79280952Y-65352380D01*
X78709523Y-66352380D02*
X79138095Y-65780952D01*
X78709523Y-65352380D02*
X79280952Y-65923809D01*
X81361904Y-63804761D02*
X81219047Y-63852380D01*
X80980952Y-63852380D01*
X80885714Y-63804761D01*
X80838095Y-63757142D01*
X80790476Y-63661904D01*
X80790476Y-63566666D01*
X80838095Y-63471428D01*
X80885714Y-63423809D01*
X80980952Y-63376190D01*
X81171428Y-63328571D01*
X81266666Y-63280952D01*
X81314285Y-63233333D01*
X81361904Y-63138095D01*
X81361904Y-63042857D01*
X81314285Y-62947619D01*
X81266666Y-62900000D01*
X81171428Y-62852380D01*
X80933333Y-62852380D01*
X80790476Y-62900000D01*
X80361904Y-63852380D02*
X80361904Y-62852380D01*
X80123809Y-62852380D01*
X79980952Y-62900000D01*
X79885714Y-62995238D01*
X79838095Y-63090476D01*
X79790476Y-63280952D01*
X79790476Y-63423809D01*
X79838095Y-63614285D01*
X79885714Y-63709523D01*
X79980952Y-63804761D01*
X80123809Y-63852380D01*
X80361904Y-63852380D01*
X79171428Y-62852380D02*
X79076190Y-62852380D01*
X78980952Y-62900000D01*
X78933333Y-62947619D01*
X78885714Y-63042857D01*
X78838095Y-63233333D01*
X78838095Y-63471428D01*
X78885714Y-63661904D01*
X78933333Y-63757142D01*
X78980952Y-63804761D01*
X79076190Y-63852380D01*
X79171428Y-63852380D01*
X79266666Y-63804761D01*
X79314285Y-63757142D01*
X79361904Y-63661904D01*
X79409523Y-63471428D01*
X79409523Y-63233333D01*
X79361904Y-63042857D01*
X79314285Y-62947619D01*
X79266666Y-62900000D01*
X79171428Y-62852380D01*
X99008928Y-65777380D02*
X98818452Y-65777380D01*
X98723214Y-65825000D01*
X98627976Y-65920238D01*
X98580357Y-66110714D01*
X98580357Y-66444047D01*
X98627976Y-66634523D01*
X98723214Y-66729761D01*
X98818452Y-66777380D01*
X99008928Y-66777380D01*
X99104166Y-66729761D01*
X99199404Y-66634523D01*
X99247023Y-66444047D01*
X99247023Y-66110714D01*
X99199404Y-65920238D01*
X99104166Y-65825000D01*
X99008928Y-65777380D01*
X98151785Y-66110714D02*
X98151785Y-67110714D01*
X98151785Y-66158333D02*
X98056547Y-66110714D01*
X97866071Y-66110714D01*
X97770833Y-66158333D01*
X97723214Y-66205952D01*
X97675595Y-66301190D01*
X97675595Y-66586904D01*
X97723214Y-66682142D01*
X97770833Y-66729761D01*
X97866071Y-66777380D01*
X98056547Y-66777380D01*
X98151785Y-66729761D01*
X96866071Y-66729761D02*
X96961309Y-66777380D01*
X97151785Y-66777380D01*
X97247023Y-66729761D01*
X97294642Y-66634523D01*
X97294642Y-66253571D01*
X97247023Y-66158333D01*
X97151785Y-66110714D01*
X96961309Y-66110714D01*
X96866071Y-66158333D01*
X96818452Y-66253571D01*
X96818452Y-66348809D01*
X97294642Y-66444047D01*
X96389880Y-66110714D02*
X96389880Y-66777380D01*
X96389880Y-66205952D02*
X96342261Y-66158333D01*
X96247023Y-66110714D01*
X96104166Y-66110714D01*
X96008928Y-66158333D01*
X95961309Y-66253571D01*
X95961309Y-66777380D01*
X94437500Y-65777380D02*
X94437500Y-66491666D01*
X94485119Y-66634523D01*
X94580357Y-66729761D01*
X94723214Y-66777380D01*
X94818452Y-66777380D01*
X93961309Y-66777380D02*
X93961309Y-65777380D01*
X93580357Y-65777380D01*
X93485119Y-65825000D01*
X93437500Y-65872619D01*
X93389880Y-65967857D01*
X93389880Y-66110714D01*
X93437500Y-66205952D01*
X93485119Y-66253571D01*
X93580357Y-66301190D01*
X93961309Y-66301190D01*
X93056547Y-65777380D02*
X92437500Y-65777380D01*
X92770833Y-66158333D01*
X92627976Y-66158333D01*
X92532738Y-66205952D01*
X92485119Y-66253571D01*
X92437500Y-66348809D01*
X92437500Y-66586904D01*
X92485119Y-66682142D01*
X92532738Y-66729761D01*
X92627976Y-66777380D01*
X92913690Y-66777380D01*
X93008928Y-66729761D01*
X93056547Y-66682142D01*
X91389880Y-66110714D02*
X91008928Y-66110714D01*
X91247023Y-65777380D02*
X91247023Y-66634523D01*
X91199404Y-66729761D01*
X91104166Y-66777380D01*
X91008928Y-66777380D01*
X90532738Y-66777380D02*
X90627976Y-66729761D01*
X90675595Y-66682142D01*
X90723214Y-66586904D01*
X90723214Y-66301190D01*
X90675595Y-66205952D01*
X90627976Y-66158333D01*
X90532738Y-66110714D01*
X90389880Y-66110714D01*
X90294642Y-66158333D01*
X90247023Y-66205952D01*
X90199404Y-66301190D01*
X90199404Y-66586904D01*
X90247023Y-66682142D01*
X90294642Y-66729761D01*
X90389880Y-66777380D01*
X90532738Y-66777380D01*
X88580357Y-66777380D02*
X88580357Y-65777380D01*
X88580357Y-66729761D02*
X88675595Y-66777380D01*
X88866071Y-66777380D01*
X88961309Y-66729761D01*
X89008928Y-66682142D01*
X89056547Y-66586904D01*
X89056547Y-66301190D01*
X89008928Y-66205952D01*
X88961309Y-66158333D01*
X88866071Y-66110714D01*
X88675595Y-66110714D01*
X88580357Y-66158333D01*
X88104166Y-66777380D02*
X88104166Y-66110714D01*
X88104166Y-65777380D02*
X88151785Y-65825000D01*
X88104166Y-65872619D01*
X88056547Y-65825000D01*
X88104166Y-65777380D01*
X88104166Y-65872619D01*
X87675595Y-66729761D02*
X87580357Y-66777380D01*
X87389880Y-66777380D01*
X87294642Y-66729761D01*
X87247023Y-66634523D01*
X87247023Y-66586904D01*
X87294642Y-66491666D01*
X87389880Y-66444047D01*
X87532738Y-66444047D01*
X87627976Y-66396428D01*
X87675595Y-66301190D01*
X87675595Y-66253571D01*
X87627976Y-66158333D01*
X87532738Y-66110714D01*
X87389880Y-66110714D01*
X87294642Y-66158333D01*
X86389880Y-66777380D02*
X86389880Y-66253571D01*
X86437500Y-66158333D01*
X86532738Y-66110714D01*
X86723214Y-66110714D01*
X86818452Y-66158333D01*
X86389880Y-66729761D02*
X86485119Y-66777380D01*
X86723214Y-66777380D01*
X86818452Y-66729761D01*
X86866071Y-66634523D01*
X86866071Y-66539285D01*
X86818452Y-66444047D01*
X86723214Y-66396428D01*
X86485119Y-66396428D01*
X86389880Y-66348809D01*
X85913690Y-66777380D02*
X85913690Y-65777380D01*
X85913690Y-66158333D02*
X85818452Y-66110714D01*
X85627976Y-66110714D01*
X85532738Y-66158333D01*
X85485119Y-66205952D01*
X85437500Y-66301190D01*
X85437500Y-66586904D01*
X85485119Y-66682142D01*
X85532738Y-66729761D01*
X85627976Y-66777380D01*
X85818452Y-66777380D01*
X85913690Y-66729761D01*
X84866071Y-66777380D02*
X84961309Y-66729761D01*
X85008928Y-66634523D01*
X85008928Y-65777380D01*
X84104166Y-66729761D02*
X84199404Y-66777380D01*
X84389880Y-66777380D01*
X84485119Y-66729761D01*
X84532738Y-66634523D01*
X84532738Y-66253571D01*
X84485119Y-66158333D01*
X84389880Y-66110714D01*
X84199404Y-66110714D01*
X84104166Y-66158333D01*
X84056547Y-66253571D01*
X84056547Y-66348809D01*
X84532738Y-66444047D01*
X99199404Y-67860714D02*
X99199404Y-68860714D01*
X99199404Y-67908333D02*
X99104166Y-67860714D01*
X98913690Y-67860714D01*
X98818452Y-67908333D01*
X98770833Y-67955952D01*
X98723214Y-68051190D01*
X98723214Y-68336904D01*
X98770833Y-68432142D01*
X98818452Y-68479761D01*
X98913690Y-68527380D01*
X99104166Y-68527380D01*
X99199404Y-68479761D01*
X98151785Y-68527380D02*
X98247023Y-68479761D01*
X98294642Y-68432142D01*
X98342261Y-68336904D01*
X98342261Y-68051190D01*
X98294642Y-67955952D01*
X98247023Y-67908333D01*
X98151785Y-67860714D01*
X98008928Y-67860714D01*
X97913690Y-67908333D01*
X97866071Y-67955952D01*
X97818452Y-68051190D01*
X97818452Y-68336904D01*
X97866071Y-68432142D01*
X97913690Y-68479761D01*
X98008928Y-68527380D01*
X98151785Y-68527380D01*
X97485119Y-67860714D02*
X97294642Y-68527380D01*
X97104166Y-68051190D01*
X96913690Y-68527380D01*
X96723214Y-67860714D01*
X95961309Y-68479761D02*
X96056547Y-68527380D01*
X96247023Y-68527380D01*
X96342261Y-68479761D01*
X96389880Y-68384523D01*
X96389880Y-68003571D01*
X96342261Y-67908333D01*
X96247023Y-67860714D01*
X96056547Y-67860714D01*
X95961309Y-67908333D01*
X95913690Y-68003571D01*
X95913690Y-68098809D01*
X96389880Y-68194047D01*
X95485119Y-68527380D02*
X95485119Y-67860714D01*
X95485119Y-68051190D02*
X95437500Y-67955952D01*
X95389880Y-67908333D01*
X95294642Y-67860714D01*
X95199404Y-67860714D01*
X93627976Y-68527380D02*
X94104166Y-68527380D01*
X94104166Y-67527380D01*
X93294642Y-68003571D02*
X92961309Y-68003571D01*
X92818452Y-68527380D02*
X93294642Y-68527380D01*
X93294642Y-67527380D01*
X92818452Y-67527380D01*
X92389880Y-68527380D02*
X92389880Y-67527380D01*
X92151785Y-67527380D01*
X92008928Y-67575000D01*
X91913690Y-67670238D01*
X91866071Y-67765476D01*
X91818452Y-67955952D01*
X91818452Y-68098809D01*
X91866071Y-68289285D01*
X91913690Y-68384523D01*
X92008928Y-68479761D01*
X92151785Y-68527380D01*
X92389880Y-68527380D01*
X98785714Y-59552380D02*
X98166666Y-59552380D01*
X98500000Y-59933333D01*
X98357142Y-59933333D01*
X98261904Y-59980952D01*
X98214285Y-60028571D01*
X98166666Y-60123809D01*
X98166666Y-60361904D01*
X98214285Y-60457142D01*
X98261904Y-60504761D01*
X98357142Y-60552380D01*
X98642857Y-60552380D01*
X98738095Y-60504761D01*
X98785714Y-60457142D01*
X97738095Y-60457142D02*
X97690476Y-60504761D01*
X97738095Y-60552380D01*
X97785714Y-60504761D01*
X97738095Y-60457142D01*
X97738095Y-60552380D01*
X97357142Y-59552380D02*
X96738095Y-59552380D01*
X97071428Y-59933333D01*
X96928571Y-59933333D01*
X96833333Y-59980952D01*
X96785714Y-60028571D01*
X96738095Y-60123809D01*
X96738095Y-60361904D01*
X96785714Y-60457142D01*
X96833333Y-60504761D01*
X96928571Y-60552380D01*
X97214285Y-60552380D01*
X97309523Y-60504761D01*
X97357142Y-60457142D01*
X96309523Y-60171428D02*
X95547619Y-60171428D01*
X94595238Y-59552380D02*
X95071428Y-59552380D01*
X95119047Y-60028571D01*
X95071428Y-59980952D01*
X94976190Y-59933333D01*
X94738095Y-59933333D01*
X94642857Y-59980952D01*
X94595238Y-60028571D01*
X94547619Y-60123809D01*
X94547619Y-60361904D01*
X94595238Y-60457142D01*
X94642857Y-60504761D01*
X94738095Y-60552380D01*
X94976190Y-60552380D01*
X95071428Y-60504761D01*
X95119047Y-60457142D01*
X94119047Y-60457142D02*
X94071428Y-60504761D01*
X94119047Y-60552380D01*
X94166666Y-60504761D01*
X94119047Y-60457142D01*
X94119047Y-60552380D01*
X93166666Y-59552380D02*
X93642857Y-59552380D01*
X93690476Y-60028571D01*
X93642857Y-59980952D01*
X93547619Y-59933333D01*
X93309523Y-59933333D01*
X93214285Y-59980952D01*
X93166666Y-60028571D01*
X93119047Y-60123809D01*
X93119047Y-60361904D01*
X93166666Y-60457142D01*
X93214285Y-60504761D01*
X93309523Y-60552380D01*
X93547619Y-60552380D01*
X93642857Y-60504761D01*
X93690476Y-60457142D01*
X92833333Y-59552380D02*
X92500000Y-60552380D01*
X92166666Y-59552380D01*
D11*
X103035714Y-59003571D02*
X102535714Y-60503571D01*
X102035714Y-59003571D01*
X101535714Y-60503571D02*
X101535714Y-59503571D01*
X101535714Y-59003571D02*
X101607142Y-59075000D01*
X101535714Y-59146428D01*
X101464285Y-59075000D01*
X101535714Y-59003571D01*
X101535714Y-59146428D01*
X100821428Y-59503571D02*
X100821428Y-60503571D01*
X100821428Y-59646428D02*
X100750000Y-59575000D01*
X100607142Y-59503571D01*
X100392857Y-59503571D01*
X100250000Y-59575000D01*
X100178571Y-59717857D01*
X100178571Y-60503571D01*
X103571428Y-62482142D02*
X102428571Y-62482142D01*
X103000000Y-63053571D02*
X103000000Y-61910714D01*
X100571428Y-62482142D02*
X99428571Y-62482142D01*
D10*
X63376639Y-16115648D02*
X63519496Y-16068029D01*
X63757591Y-16068029D01*
X63852829Y-16115648D01*
X63900448Y-16163267D01*
X63948067Y-16258505D01*
X63948067Y-16353743D01*
X63900448Y-16448981D01*
X63852829Y-16496600D01*
X63757591Y-16544219D01*
X63567115Y-16591838D01*
X63471877Y-16639457D01*
X63424258Y-16687076D01*
X63376639Y-16782314D01*
X63376639Y-16877552D01*
X63424258Y-16972790D01*
X63471877Y-17020410D01*
X63567115Y-17068029D01*
X63805210Y-17068029D01*
X63948067Y-17020410D01*
X64376639Y-16068029D02*
X64376639Y-17068029D01*
X64614734Y-17068029D01*
X64757591Y-17020410D01*
X64852829Y-16925171D01*
X64900448Y-16829933D01*
X64948067Y-16639457D01*
X64948067Y-16496600D01*
X64900448Y-16306124D01*
X64852829Y-16210886D01*
X64757591Y-16115648D01*
X64614734Y-16068029D01*
X64376639Y-16068029D01*
X65329020Y-16972790D02*
X65376639Y-17020410D01*
X65471877Y-17068029D01*
X65709972Y-17068029D01*
X65805210Y-17020410D01*
X65852829Y-16972790D01*
X65900448Y-16877552D01*
X65900448Y-16782314D01*
X65852829Y-16639457D01*
X65281401Y-16068029D01*
X65900448Y-16068029D01*
X63376639Y-18615648D02*
X63519496Y-18568029D01*
X63757591Y-18568029D01*
X63852829Y-18615648D01*
X63900448Y-18663267D01*
X63948067Y-18758505D01*
X63948067Y-18853743D01*
X63900448Y-18948981D01*
X63852829Y-18996600D01*
X63757591Y-19044219D01*
X63567115Y-19091838D01*
X63471877Y-19139457D01*
X63424258Y-19187076D01*
X63376639Y-19282314D01*
X63376639Y-19377552D01*
X63424258Y-19472790D01*
X63471877Y-19520410D01*
X63567115Y-19568029D01*
X63805210Y-19568029D01*
X63948067Y-19520410D01*
X64376639Y-18568029D02*
X64376639Y-19568029D01*
X64614734Y-19568029D01*
X64757591Y-19520410D01*
X64852829Y-19425171D01*
X64900448Y-19329933D01*
X64948067Y-19139457D01*
X64948067Y-18996600D01*
X64900448Y-18806124D01*
X64852829Y-18710886D01*
X64757591Y-18615648D01*
X64614734Y-18568029D01*
X64376639Y-18568029D01*
X65281401Y-19568029D02*
X65900448Y-19568029D01*
X65567115Y-19187076D01*
X65709972Y-19187076D01*
X65805210Y-19139457D01*
X65852829Y-19091838D01*
X65900448Y-18996600D01*
X65900448Y-18758505D01*
X65852829Y-18663267D01*
X65805210Y-18615648D01*
X65709972Y-18568029D01*
X65424258Y-18568029D01*
X65329020Y-18615648D01*
X65281401Y-18663267D01*
X63976639Y-21263267D02*
X63929020Y-21215648D01*
X63786163Y-21168029D01*
X63690924Y-21168029D01*
X63548067Y-21215648D01*
X63452829Y-21310886D01*
X63405210Y-21406124D01*
X63357591Y-21596600D01*
X63357591Y-21739457D01*
X63405210Y-21929933D01*
X63452829Y-22025171D01*
X63548067Y-22120410D01*
X63690924Y-22168029D01*
X63786163Y-22168029D01*
X63929020Y-22120410D01*
X63976639Y-22072790D01*
X64405210Y-21168029D02*
X64405210Y-22168029D01*
X64738544Y-21453743D01*
X65071877Y-22168029D01*
X65071877Y-21168029D01*
X65548067Y-21168029D02*
X65548067Y-22168029D01*
X65786163Y-22168029D01*
X65929020Y-22120410D01*
X66024258Y-22025171D01*
X66071877Y-21929933D01*
X66119496Y-21739457D01*
X66119496Y-21596600D01*
X66071877Y-21406124D01*
X66024258Y-21310886D01*
X65929020Y-21215648D01*
X65786163Y-21168029D01*
X65548067Y-21168029D01*
X61848067Y-23915648D02*
X61990924Y-23868029D01*
X62229020Y-23868029D01*
X62324258Y-23915648D01*
X62371877Y-23963267D01*
X62419496Y-24058505D01*
X62419496Y-24153743D01*
X62371877Y-24248981D01*
X62324258Y-24296600D01*
X62229020Y-24344219D01*
X62038544Y-24391838D01*
X61943305Y-24439457D01*
X61895686Y-24487076D01*
X61848067Y-24582314D01*
X61848067Y-24677552D01*
X61895686Y-24772790D01*
X61943305Y-24820410D01*
X62038544Y-24868029D01*
X62276639Y-24868029D01*
X62419496Y-24820410D01*
X62848067Y-23868029D02*
X62848067Y-24868029D01*
X63086163Y-24868029D01*
X63229020Y-24820410D01*
X63324258Y-24725171D01*
X63371877Y-24629933D01*
X63419496Y-24439457D01*
X63419496Y-24296600D01*
X63371877Y-24106124D01*
X63324258Y-24010886D01*
X63229020Y-23915648D01*
X63086163Y-23868029D01*
X62848067Y-23868029D01*
X64419496Y-23963267D02*
X64371877Y-23915648D01*
X64229020Y-23868029D01*
X64133782Y-23868029D01*
X63990924Y-23915648D01*
X63895686Y-24010886D01*
X63848067Y-24106124D01*
X63800448Y-24296600D01*
X63800448Y-24439457D01*
X63848067Y-24629933D01*
X63895686Y-24725171D01*
X63990924Y-24820410D01*
X64133782Y-24868029D01*
X64229020Y-24868029D01*
X64371877Y-24820410D01*
X64419496Y-24772790D01*
X65324258Y-23868029D02*
X64848067Y-23868029D01*
X64848067Y-24868029D01*
X65657591Y-23868029D02*
X65657591Y-24868029D01*
X66229020Y-23868029D02*
X65800448Y-24439457D01*
X66229020Y-24868029D02*
X65657591Y-24296600D01*
X63576639Y-26415648D02*
X63719496Y-26368029D01*
X63957591Y-26368029D01*
X64052829Y-26415648D01*
X64100448Y-26463267D01*
X64148067Y-26558505D01*
X64148067Y-26653743D01*
X64100448Y-26748981D01*
X64052829Y-26796600D01*
X63957591Y-26844219D01*
X63767115Y-26891838D01*
X63671877Y-26939457D01*
X63624258Y-26987076D01*
X63576639Y-27082314D01*
X63576639Y-27177552D01*
X63624258Y-27272790D01*
X63671877Y-27320410D01*
X63767115Y-27368029D01*
X64005210Y-27368029D01*
X64148067Y-27320410D01*
X64576639Y-26368029D02*
X64576639Y-27368029D01*
X64814734Y-27368029D01*
X64957591Y-27320410D01*
X65052829Y-27225171D01*
X65100448Y-27129933D01*
X65148067Y-26939457D01*
X65148067Y-26796600D01*
X65100448Y-26606124D01*
X65052829Y-26510886D01*
X64957591Y-26415648D01*
X64814734Y-26368029D01*
X64576639Y-26368029D01*
X65767115Y-27368029D02*
X65862353Y-27368029D01*
X65957591Y-27320410D01*
X66005210Y-27272790D01*
X66052829Y-27177552D01*
X66100448Y-26987076D01*
X66100448Y-26748981D01*
X66052829Y-26558505D01*
X66005210Y-26463267D01*
X65957591Y-26415648D01*
X65862353Y-26368029D01*
X65767115Y-26368029D01*
X65671877Y-26415648D01*
X65624258Y-26463267D01*
X65576639Y-26558505D01*
X65529020Y-26748981D01*
X65529020Y-26987076D01*
X65576639Y-27177552D01*
X65624258Y-27272790D01*
X65671877Y-27320410D01*
X65767115Y-27368029D01*
X45929615Y-24443029D02*
X46120091Y-24443029D01*
X46215329Y-24395410D01*
X46310567Y-24300171D01*
X46358186Y-24109695D01*
X46358186Y-23776362D01*
X46310567Y-23585886D01*
X46215329Y-23490648D01*
X46120091Y-23443029D01*
X45929615Y-23443029D01*
X45834377Y-23490648D01*
X45739139Y-23585886D01*
X45691520Y-23776362D01*
X45691520Y-24109695D01*
X45739139Y-24300171D01*
X45834377Y-24395410D01*
X45929615Y-24443029D01*
X46786758Y-24109695D02*
X46786758Y-23109695D01*
X46786758Y-24062076D02*
X46881996Y-24109695D01*
X47072472Y-24109695D01*
X47167710Y-24062076D01*
X47215329Y-24014457D01*
X47262948Y-23919219D01*
X47262948Y-23633505D01*
X47215329Y-23538267D01*
X47167710Y-23490648D01*
X47072472Y-23443029D01*
X46881996Y-23443029D01*
X46786758Y-23490648D01*
X48072472Y-23490648D02*
X47977234Y-23443029D01*
X47786758Y-23443029D01*
X47691520Y-23490648D01*
X47643901Y-23585886D01*
X47643901Y-23966838D01*
X47691520Y-24062076D01*
X47786758Y-24109695D01*
X47977234Y-24109695D01*
X48072472Y-24062076D01*
X48120091Y-23966838D01*
X48120091Y-23871600D01*
X47643901Y-23776362D01*
X48548663Y-24109695D02*
X48548663Y-23443029D01*
X48548663Y-24014457D02*
X48596282Y-24062076D01*
X48691520Y-24109695D01*
X48834377Y-24109695D01*
X48929615Y-24062076D01*
X48977234Y-23966838D01*
X48977234Y-23443029D01*
X50501044Y-24443029D02*
X50501044Y-23728743D01*
X50453424Y-23585886D01*
X50358186Y-23490648D01*
X50215329Y-23443029D01*
X50120091Y-23443029D01*
X50977234Y-23443029D02*
X50977234Y-24443029D01*
X51358186Y-24443029D01*
X51453424Y-24395410D01*
X51501044Y-24347790D01*
X51548663Y-24252552D01*
X51548663Y-24109695D01*
X51501044Y-24014457D01*
X51453424Y-23966838D01*
X51358186Y-23919219D01*
X50977234Y-23919219D01*
X51881996Y-24443029D02*
X52501044Y-24443029D01*
X52167710Y-24062076D01*
X52310567Y-24062076D01*
X52405805Y-24014457D01*
X52453424Y-23966838D01*
X52501044Y-23871600D01*
X52501044Y-23633505D01*
X52453424Y-23538267D01*
X52405805Y-23490648D01*
X52310567Y-23443029D01*
X52024853Y-23443029D01*
X51929615Y-23490648D01*
X51881996Y-23538267D01*
X53548663Y-24109695D02*
X53929615Y-24109695D01*
X53691520Y-24443029D02*
X53691520Y-23585886D01*
X53739139Y-23490648D01*
X53834377Y-23443029D01*
X53929615Y-23443029D01*
X54405805Y-23443029D02*
X54310567Y-23490648D01*
X54262948Y-23538267D01*
X54215329Y-23633505D01*
X54215329Y-23919219D01*
X54262948Y-24014457D01*
X54310567Y-24062076D01*
X54405805Y-24109695D01*
X54548663Y-24109695D01*
X54643901Y-24062076D01*
X54691520Y-24014457D01*
X54739139Y-23919219D01*
X54739139Y-23633505D01*
X54691520Y-23538267D01*
X54643901Y-23490648D01*
X54548663Y-23443029D01*
X54405805Y-23443029D01*
X56358186Y-23443029D02*
X56358186Y-24443029D01*
X56358186Y-23490648D02*
X56262948Y-23443029D01*
X56072472Y-23443029D01*
X55977234Y-23490648D01*
X55929615Y-23538267D01*
X55881996Y-23633505D01*
X55881996Y-23919219D01*
X55929615Y-24014457D01*
X55977234Y-24062076D01*
X56072472Y-24109695D01*
X56262948Y-24109695D01*
X56358186Y-24062076D01*
X56834377Y-23443029D02*
X56834377Y-24109695D01*
X56834377Y-24443029D02*
X56786758Y-24395410D01*
X56834377Y-24347790D01*
X56881996Y-24395410D01*
X56834377Y-24443029D01*
X56834377Y-24347790D01*
X57262948Y-23490648D02*
X57358186Y-23443029D01*
X57548663Y-23443029D01*
X57643901Y-23490648D01*
X57691520Y-23585886D01*
X57691520Y-23633505D01*
X57643901Y-23728743D01*
X57548663Y-23776362D01*
X57405805Y-23776362D01*
X57310567Y-23823981D01*
X57262948Y-23919219D01*
X57262948Y-23966838D01*
X57310567Y-24062076D01*
X57405805Y-24109695D01*
X57548663Y-24109695D01*
X57643901Y-24062076D01*
X58548663Y-23443029D02*
X58548663Y-23966838D01*
X58501044Y-24062076D01*
X58405805Y-24109695D01*
X58215329Y-24109695D01*
X58120091Y-24062076D01*
X58548663Y-23490648D02*
X58453424Y-23443029D01*
X58215329Y-23443029D01*
X58120091Y-23490648D01*
X58072472Y-23585886D01*
X58072472Y-23681124D01*
X58120091Y-23776362D01*
X58215329Y-23823981D01*
X58453424Y-23823981D01*
X58548663Y-23871600D01*
X59024853Y-23443029D02*
X59024853Y-24443029D01*
X59024853Y-24062076D02*
X59120091Y-24109695D01*
X59310567Y-24109695D01*
X59405805Y-24062076D01*
X59453424Y-24014457D01*
X59501044Y-23919219D01*
X59501044Y-23633505D01*
X59453424Y-23538267D01*
X59405805Y-23490648D01*
X59310567Y-23443029D01*
X59120091Y-23443029D01*
X59024853Y-23490648D01*
X60072472Y-23443029D02*
X59977234Y-23490648D01*
X59929615Y-23585886D01*
X59929615Y-24443029D01*
X60834377Y-23490648D02*
X60739139Y-23443029D01*
X60548663Y-23443029D01*
X60453424Y-23490648D01*
X60405805Y-23585886D01*
X60405805Y-23966838D01*
X60453424Y-24062076D01*
X60548663Y-24109695D01*
X60739139Y-24109695D01*
X60834377Y-24062076D01*
X60881996Y-23966838D01*
X60881996Y-23871600D01*
X60405805Y-23776362D01*
X45739139Y-22359695D02*
X45739139Y-21359695D01*
X45739139Y-22312076D02*
X45834377Y-22359695D01*
X46024853Y-22359695D01*
X46120091Y-22312076D01*
X46167710Y-22264457D01*
X46215329Y-22169219D01*
X46215329Y-21883505D01*
X46167710Y-21788267D01*
X46120091Y-21740648D01*
X46024853Y-21693029D01*
X45834377Y-21693029D01*
X45739139Y-21740648D01*
X46786758Y-21693029D02*
X46691520Y-21740648D01*
X46643901Y-21788267D01*
X46596282Y-21883505D01*
X46596282Y-22169219D01*
X46643901Y-22264457D01*
X46691520Y-22312076D01*
X46786758Y-22359695D01*
X46929615Y-22359695D01*
X47024853Y-22312076D01*
X47072472Y-22264457D01*
X47120091Y-22169219D01*
X47120091Y-21883505D01*
X47072472Y-21788267D01*
X47024853Y-21740648D01*
X46929615Y-21693029D01*
X46786758Y-21693029D01*
X47453424Y-22359695D02*
X47643901Y-21693029D01*
X47834377Y-22169219D01*
X48024853Y-21693029D01*
X48215329Y-22359695D01*
X48977234Y-21740648D02*
X48881996Y-21693029D01*
X48691520Y-21693029D01*
X48596282Y-21740648D01*
X48548663Y-21835886D01*
X48548663Y-22216838D01*
X48596282Y-22312076D01*
X48691520Y-22359695D01*
X48881996Y-22359695D01*
X48977234Y-22312076D01*
X49024853Y-22216838D01*
X49024853Y-22121600D01*
X48548663Y-22026362D01*
X49453424Y-21693029D02*
X49453424Y-22359695D01*
X49453424Y-22169219D02*
X49501044Y-22264457D01*
X49548663Y-22312076D01*
X49643901Y-22359695D01*
X49739139Y-22359695D01*
X51310567Y-21693029D02*
X50834377Y-21693029D01*
X50834377Y-22693029D01*
X51643901Y-22216838D02*
X51977234Y-22216838D01*
X52120091Y-21693029D02*
X51643901Y-21693029D01*
X51643901Y-22693029D01*
X52120091Y-22693029D01*
X52548663Y-21693029D02*
X52548663Y-22693029D01*
X52786758Y-22693029D01*
X52929615Y-22645410D01*
X53024853Y-22550171D01*
X53072472Y-22454933D01*
X53120091Y-22264457D01*
X53120091Y-22121600D01*
X53072472Y-21931124D01*
X53024853Y-21835886D01*
X52929615Y-21740648D01*
X52786758Y-21693029D01*
X52548663Y-21693029D01*
X46152829Y-30668029D02*
X46771877Y-30668029D01*
X46438544Y-30287076D01*
X46581401Y-30287076D01*
X46676639Y-30239457D01*
X46724258Y-30191838D01*
X46771877Y-30096600D01*
X46771877Y-29858505D01*
X46724258Y-29763267D01*
X46676639Y-29715648D01*
X46581401Y-29668029D01*
X46295686Y-29668029D01*
X46200448Y-29715648D01*
X46152829Y-29763267D01*
X47200448Y-29763267D02*
X47248067Y-29715648D01*
X47200448Y-29668029D01*
X47152829Y-29715648D01*
X47200448Y-29763267D01*
X47200448Y-29668029D01*
X47581401Y-30668029D02*
X48200448Y-30668029D01*
X47867115Y-30287076D01*
X48009972Y-30287076D01*
X48105210Y-30239457D01*
X48152829Y-30191838D01*
X48200448Y-30096600D01*
X48200448Y-29858505D01*
X48152829Y-29763267D01*
X48105210Y-29715648D01*
X48009972Y-29668029D01*
X47724258Y-29668029D01*
X47629020Y-29715648D01*
X47581401Y-29763267D01*
X48629020Y-30048981D02*
X49390924Y-30048981D01*
X50343305Y-30668029D02*
X49867115Y-30668029D01*
X49819496Y-30191838D01*
X49867115Y-30239457D01*
X49962353Y-30287076D01*
X50200448Y-30287076D01*
X50295686Y-30239457D01*
X50343305Y-30191838D01*
X50390924Y-30096600D01*
X50390924Y-29858505D01*
X50343305Y-29763267D01*
X50295686Y-29715648D01*
X50200448Y-29668029D01*
X49962353Y-29668029D01*
X49867115Y-29715648D01*
X49819496Y-29763267D01*
X50819496Y-29763267D02*
X50867115Y-29715648D01*
X50819496Y-29668029D01*
X50771877Y-29715648D01*
X50819496Y-29763267D01*
X50819496Y-29668029D01*
X51771877Y-30668029D02*
X51295686Y-30668029D01*
X51248067Y-30191838D01*
X51295686Y-30239457D01*
X51390924Y-30287076D01*
X51629020Y-30287076D01*
X51724258Y-30239457D01*
X51771877Y-30191838D01*
X51819496Y-30096600D01*
X51819496Y-29858505D01*
X51771877Y-29763267D01*
X51724258Y-29715648D01*
X51629020Y-29668029D01*
X51390924Y-29668029D01*
X51295686Y-29715648D01*
X51248067Y-29763267D01*
X52105210Y-30668029D02*
X52438544Y-29668029D01*
X52771877Y-30668029D01*
D11*
X41902829Y-31216838D02*
X42402829Y-29716838D01*
X42902829Y-31216838D01*
X43402829Y-29716838D02*
X43402829Y-30716838D01*
X43402829Y-31216838D02*
X43331401Y-31145410D01*
X43402829Y-31073981D01*
X43474258Y-31145410D01*
X43402829Y-31216838D01*
X43402829Y-31073981D01*
X44117115Y-30716838D02*
X44117115Y-29716838D01*
X44117115Y-30573981D02*
X44188544Y-30645410D01*
X44331401Y-30716838D01*
X44545686Y-30716838D01*
X44688544Y-30645410D01*
X44759972Y-30502552D01*
X44759972Y-29716838D01*
X41367115Y-27738267D02*
X42509972Y-27738267D01*
X41938544Y-27166838D02*
X41938544Y-28309695D01*
X44367115Y-27738267D02*
X45509972Y-27738267D01*
D12*
G04 #@! TO.C,REF\002A\002A*
G36*
X54610256Y-70259918D02*
X54554799Y-70287568D01*
X54505852Y-70338480D01*
X54492371Y-70357338D01*
X54477686Y-70382015D01*
X54468158Y-70408816D01*
X54462707Y-70444587D01*
X54460253Y-70496169D01*
X54459714Y-70564267D01*
X54462148Y-70657588D01*
X54470606Y-70727657D01*
X54486826Y-70779931D01*
X54512546Y-70819869D01*
X54549503Y-70852929D01*
X54552218Y-70854886D01*
X54588640Y-70874908D01*
X54632498Y-70884815D01*
X54688276Y-70887257D01*
X54778952Y-70887257D01*
X54778990Y-70975283D01*
X54779834Y-71024308D01*
X54784976Y-71053065D01*
X54798413Y-71070311D01*
X54824142Y-71084808D01*
X54830321Y-71087769D01*
X54859236Y-71101648D01*
X54881624Y-71110414D01*
X54898271Y-71111171D01*
X54909964Y-71101023D01*
X54917490Y-71077073D01*
X54921634Y-71036426D01*
X54923185Y-70976186D01*
X54922929Y-70893455D01*
X54921651Y-70785339D01*
X54921252Y-70753000D01*
X54919815Y-70641524D01*
X54918528Y-70568603D01*
X54779029Y-70568603D01*
X54778245Y-70630499D01*
X54774760Y-70670997D01*
X54766876Y-70697708D01*
X54752895Y-70718244D01*
X54743403Y-70728260D01*
X54704596Y-70757567D01*
X54670237Y-70759952D01*
X54634784Y-70735750D01*
X54633886Y-70734857D01*
X54619461Y-70716153D01*
X54610687Y-70690732D01*
X54606261Y-70651584D01*
X54604882Y-70591697D01*
X54604857Y-70578430D01*
X54608188Y-70495901D01*
X54619031Y-70438691D01*
X54638660Y-70403766D01*
X54668350Y-70388094D01*
X54685509Y-70386514D01*
X54726234Y-70393926D01*
X54754168Y-70418330D01*
X54770983Y-70462980D01*
X54778350Y-70531130D01*
X54779029Y-70568603D01*
X54918528Y-70568603D01*
X54918292Y-70555245D01*
X54916323Y-70490333D01*
X54913550Y-70442958D01*
X54909612Y-70409290D01*
X54904151Y-70385498D01*
X54896808Y-70367753D01*
X54887223Y-70352224D01*
X54883113Y-70346381D01*
X54828595Y-70291185D01*
X54759664Y-70259890D01*
X54679928Y-70251165D01*
X54610256Y-70259918D01*
X54610256Y-70259918D01*
G37*
X54610256Y-70259918D02*
X54554799Y-70287568D01*
X54505852Y-70338480D01*
X54492371Y-70357338D01*
X54477686Y-70382015D01*
X54468158Y-70408816D01*
X54462707Y-70444587D01*
X54460253Y-70496169D01*
X54459714Y-70564267D01*
X54462148Y-70657588D01*
X54470606Y-70727657D01*
X54486826Y-70779931D01*
X54512546Y-70819869D01*
X54549503Y-70852929D01*
X54552218Y-70854886D01*
X54588640Y-70874908D01*
X54632498Y-70884815D01*
X54688276Y-70887257D01*
X54778952Y-70887257D01*
X54778990Y-70975283D01*
X54779834Y-71024308D01*
X54784976Y-71053065D01*
X54798413Y-71070311D01*
X54824142Y-71084808D01*
X54830321Y-71087769D01*
X54859236Y-71101648D01*
X54881624Y-71110414D01*
X54898271Y-71111171D01*
X54909964Y-71101023D01*
X54917490Y-71077073D01*
X54921634Y-71036426D01*
X54923185Y-70976186D01*
X54922929Y-70893455D01*
X54921651Y-70785339D01*
X54921252Y-70753000D01*
X54919815Y-70641524D01*
X54918528Y-70568603D01*
X54779029Y-70568603D01*
X54778245Y-70630499D01*
X54774760Y-70670997D01*
X54766876Y-70697708D01*
X54752895Y-70718244D01*
X54743403Y-70728260D01*
X54704596Y-70757567D01*
X54670237Y-70759952D01*
X54634784Y-70735750D01*
X54633886Y-70734857D01*
X54619461Y-70716153D01*
X54610687Y-70690732D01*
X54606261Y-70651584D01*
X54604882Y-70591697D01*
X54604857Y-70578430D01*
X54608188Y-70495901D01*
X54619031Y-70438691D01*
X54638660Y-70403766D01*
X54668350Y-70388094D01*
X54685509Y-70386514D01*
X54726234Y-70393926D01*
X54754168Y-70418330D01*
X54770983Y-70462980D01*
X54778350Y-70531130D01*
X54779029Y-70568603D01*
X54918528Y-70568603D01*
X54918292Y-70555245D01*
X54916323Y-70490333D01*
X54913550Y-70442958D01*
X54909612Y-70409290D01*
X54904151Y-70385498D01*
X54896808Y-70367753D01*
X54887223Y-70352224D01*
X54883113Y-70346381D01*
X54828595Y-70291185D01*
X54759664Y-70259890D01*
X54679928Y-70251165D01*
X54610256Y-70259918D01*
G36*
X53493907Y-70267780D02*
X53447328Y-70294723D01*
X53414943Y-70321466D01*
X53391258Y-70349484D01*
X53374941Y-70383748D01*
X53364661Y-70429227D01*
X53359086Y-70490892D01*
X53356884Y-70573711D01*
X53356629Y-70633246D01*
X53356629Y-70852391D01*
X53418314Y-70880044D01*
X53480000Y-70907697D01*
X53487257Y-70667670D01*
X53490256Y-70578028D01*
X53493402Y-70512962D01*
X53497299Y-70468026D01*
X53502553Y-70438770D01*
X53509769Y-70420748D01*
X53519550Y-70409511D01*
X53522688Y-70407079D01*
X53570239Y-70388083D01*
X53618303Y-70395600D01*
X53646914Y-70415543D01*
X53658553Y-70429675D01*
X53666609Y-70448220D01*
X53671729Y-70476334D01*
X53674559Y-70519173D01*
X53675744Y-70581895D01*
X53675943Y-70647261D01*
X53675982Y-70729268D01*
X53677386Y-70787316D01*
X53682086Y-70826465D01*
X53692013Y-70851780D01*
X53709097Y-70868323D01*
X53735268Y-70881156D01*
X53770225Y-70894491D01*
X53808404Y-70909007D01*
X53803859Y-70651389D01*
X53802029Y-70558519D01*
X53799888Y-70489889D01*
X53796819Y-70440711D01*
X53792206Y-70406198D01*
X53785432Y-70381562D01*
X53775881Y-70362016D01*
X53764366Y-70344770D01*
X53708810Y-70289680D01*
X53641020Y-70257822D01*
X53567287Y-70250191D01*
X53493907Y-70267780D01*
X53493907Y-70267780D01*
G37*
X53493907Y-70267780D02*
X53447328Y-70294723D01*
X53414943Y-70321466D01*
X53391258Y-70349484D01*
X53374941Y-70383748D01*
X53364661Y-70429227D01*
X53359086Y-70490892D01*
X53356884Y-70573711D01*
X53356629Y-70633246D01*
X53356629Y-70852391D01*
X53418314Y-70880044D01*
X53480000Y-70907697D01*
X53487257Y-70667670D01*
X53490256Y-70578028D01*
X53493402Y-70512962D01*
X53497299Y-70468026D01*
X53502553Y-70438770D01*
X53509769Y-70420748D01*
X53519550Y-70409511D01*
X53522688Y-70407079D01*
X53570239Y-70388083D01*
X53618303Y-70395600D01*
X53646914Y-70415543D01*
X53658553Y-70429675D01*
X53666609Y-70448220D01*
X53671729Y-70476334D01*
X53674559Y-70519173D01*
X53675744Y-70581895D01*
X53675943Y-70647261D01*
X53675982Y-70729268D01*
X53677386Y-70787316D01*
X53682086Y-70826465D01*
X53692013Y-70851780D01*
X53709097Y-70868323D01*
X53735268Y-70881156D01*
X53770225Y-70894491D01*
X53808404Y-70909007D01*
X53803859Y-70651389D01*
X53802029Y-70558519D01*
X53799888Y-70489889D01*
X53796819Y-70440711D01*
X53792206Y-70406198D01*
X53785432Y-70381562D01*
X53775881Y-70362016D01*
X53764366Y-70344770D01*
X53708810Y-70289680D01*
X53641020Y-70257822D01*
X53567287Y-70250191D01*
X53493907Y-70267780D01*
G36*
X55168885Y-70261962D02*
X55100855Y-70297733D01*
X55050649Y-70355301D01*
X55032815Y-70392312D01*
X55018937Y-70447882D01*
X55011833Y-70518096D01*
X55011160Y-70594727D01*
X55016573Y-70669552D01*
X55027730Y-70734342D01*
X55044286Y-70780873D01*
X55049374Y-70788887D01*
X55109645Y-70848707D01*
X55181231Y-70884535D01*
X55258908Y-70895020D01*
X55337452Y-70878810D01*
X55359311Y-70869092D01*
X55401878Y-70839143D01*
X55439237Y-70799433D01*
X55442768Y-70794397D01*
X55457119Y-70770124D01*
X55466606Y-70744178D01*
X55472210Y-70710022D01*
X55474914Y-70661119D01*
X55475701Y-70590935D01*
X55475714Y-70575200D01*
X55475678Y-70570192D01*
X55330571Y-70570192D01*
X55329727Y-70636430D01*
X55326404Y-70680386D01*
X55319417Y-70708779D01*
X55307584Y-70728325D01*
X55301543Y-70734857D01*
X55266814Y-70759680D01*
X55233097Y-70758548D01*
X55199005Y-70737016D01*
X55178671Y-70714029D01*
X55166629Y-70680478D01*
X55159866Y-70627569D01*
X55159402Y-70621399D01*
X55158248Y-70525513D01*
X55170312Y-70454299D01*
X55195430Y-70408194D01*
X55233440Y-70387635D01*
X55247008Y-70386514D01*
X55282636Y-70392152D01*
X55307006Y-70411686D01*
X55321907Y-70449042D01*
X55329125Y-70508150D01*
X55330571Y-70570192D01*
X55475678Y-70570192D01*
X55475174Y-70500413D01*
X55472904Y-70448159D01*
X55467932Y-70411949D01*
X55459287Y-70385299D01*
X55445995Y-70361722D01*
X55443057Y-70357338D01*
X55393687Y-70298249D01*
X55339891Y-70263947D01*
X55274398Y-70250331D01*
X55252158Y-70249665D01*
X55168885Y-70261962D01*
X55168885Y-70261962D01*
G37*
X55168885Y-70261962D02*
X55100855Y-70297733D01*
X55050649Y-70355301D01*
X55032815Y-70392312D01*
X55018937Y-70447882D01*
X55011833Y-70518096D01*
X55011160Y-70594727D01*
X55016573Y-70669552D01*
X55027730Y-70734342D01*
X55044286Y-70780873D01*
X55049374Y-70788887D01*
X55109645Y-70848707D01*
X55181231Y-70884535D01*
X55258908Y-70895020D01*
X55337452Y-70878810D01*
X55359311Y-70869092D01*
X55401878Y-70839143D01*
X55439237Y-70799433D01*
X55442768Y-70794397D01*
X55457119Y-70770124D01*
X55466606Y-70744178D01*
X55472210Y-70710022D01*
X55474914Y-70661119D01*
X55475701Y-70590935D01*
X55475714Y-70575200D01*
X55475678Y-70570192D01*
X55330571Y-70570192D01*
X55329727Y-70636430D01*
X55326404Y-70680386D01*
X55319417Y-70708779D01*
X55307584Y-70728325D01*
X55301543Y-70734857D01*
X55266814Y-70759680D01*
X55233097Y-70758548D01*
X55199005Y-70737016D01*
X55178671Y-70714029D01*
X55166629Y-70680478D01*
X55159866Y-70627569D01*
X55159402Y-70621399D01*
X55158248Y-70525513D01*
X55170312Y-70454299D01*
X55195430Y-70408194D01*
X55233440Y-70387635D01*
X55247008Y-70386514D01*
X55282636Y-70392152D01*
X55307006Y-70411686D01*
X55321907Y-70449042D01*
X55329125Y-70508150D01*
X55330571Y-70570192D01*
X55475678Y-70570192D01*
X55475174Y-70500413D01*
X55472904Y-70448159D01*
X55467932Y-70411949D01*
X55459287Y-70385299D01*
X55445995Y-70361722D01*
X55443057Y-70357338D01*
X55393687Y-70298249D01*
X55339891Y-70263947D01*
X55274398Y-70250331D01*
X55252158Y-70249665D01*
X55168885Y-70261962D01*
G36*
X54041697Y-70271239D02*
X53984473Y-70309735D01*
X53940251Y-70365335D01*
X53913833Y-70436086D01*
X53908490Y-70488162D01*
X53909097Y-70509893D01*
X53914178Y-70526531D01*
X53928145Y-70541437D01*
X53955411Y-70557973D01*
X54000388Y-70579498D01*
X54067489Y-70609374D01*
X54067829Y-70609524D01*
X54129593Y-70637813D01*
X54180241Y-70662933D01*
X54214596Y-70682179D01*
X54227482Y-70692848D01*
X54227486Y-70692934D01*
X54216128Y-70716166D01*
X54189569Y-70741774D01*
X54159077Y-70760221D01*
X54143630Y-70763886D01*
X54101485Y-70751212D01*
X54065192Y-70719471D01*
X54047483Y-70684572D01*
X54030448Y-70658845D01*
X53997078Y-70629546D01*
X53957851Y-70604235D01*
X53923244Y-70590471D01*
X53916007Y-70589714D01*
X53907861Y-70602160D01*
X53907370Y-70633972D01*
X53913357Y-70676866D01*
X53924643Y-70722558D01*
X53940050Y-70762761D01*
X53940829Y-70764322D01*
X53987196Y-70829062D01*
X54047289Y-70873097D01*
X54115535Y-70894711D01*
X54186362Y-70892185D01*
X54254196Y-70863804D01*
X54257212Y-70861808D01*
X54310573Y-70813448D01*
X54345660Y-70750352D01*
X54365078Y-70667387D01*
X54367684Y-70644078D01*
X54372299Y-70534055D01*
X54366767Y-70482748D01*
X54227486Y-70482748D01*
X54225676Y-70514753D01*
X54215778Y-70524093D01*
X54191102Y-70517105D01*
X54152205Y-70500587D01*
X54108725Y-70479881D01*
X54107644Y-70479333D01*
X54070791Y-70459949D01*
X54056000Y-70447013D01*
X54059647Y-70433451D01*
X54075005Y-70415632D01*
X54114077Y-70389845D01*
X54156154Y-70387950D01*
X54193897Y-70406717D01*
X54219966Y-70442915D01*
X54227486Y-70482748D01*
X54366767Y-70482748D01*
X54362806Y-70446027D01*
X54338450Y-70376212D01*
X54304544Y-70327302D01*
X54243347Y-70277878D01*
X54175937Y-70253359D01*
X54107120Y-70251797D01*
X54041697Y-70271239D01*
X54041697Y-70271239D01*
G37*
X54041697Y-70271239D02*
X53984473Y-70309735D01*
X53940251Y-70365335D01*
X53913833Y-70436086D01*
X53908490Y-70488162D01*
X53909097Y-70509893D01*
X53914178Y-70526531D01*
X53928145Y-70541437D01*
X53955411Y-70557973D01*
X54000388Y-70579498D01*
X54067489Y-70609374D01*
X54067829Y-70609524D01*
X54129593Y-70637813D01*
X54180241Y-70662933D01*
X54214596Y-70682179D01*
X54227482Y-70692848D01*
X54227486Y-70692934D01*
X54216128Y-70716166D01*
X54189569Y-70741774D01*
X54159077Y-70760221D01*
X54143630Y-70763886D01*
X54101485Y-70751212D01*
X54065192Y-70719471D01*
X54047483Y-70684572D01*
X54030448Y-70658845D01*
X53997078Y-70629546D01*
X53957851Y-70604235D01*
X53923244Y-70590471D01*
X53916007Y-70589714D01*
X53907861Y-70602160D01*
X53907370Y-70633972D01*
X53913357Y-70676866D01*
X53924643Y-70722558D01*
X53940050Y-70762761D01*
X53940829Y-70764322D01*
X53987196Y-70829062D01*
X54047289Y-70873097D01*
X54115535Y-70894711D01*
X54186362Y-70892185D01*
X54254196Y-70863804D01*
X54257212Y-70861808D01*
X54310573Y-70813448D01*
X54345660Y-70750352D01*
X54365078Y-70667387D01*
X54367684Y-70644078D01*
X54372299Y-70534055D01*
X54366767Y-70482748D01*
X54227486Y-70482748D01*
X54225676Y-70514753D01*
X54215778Y-70524093D01*
X54191102Y-70517105D01*
X54152205Y-70500587D01*
X54108725Y-70479881D01*
X54107644Y-70479333D01*
X54070791Y-70459949D01*
X54056000Y-70447013D01*
X54059647Y-70433451D01*
X54075005Y-70415632D01*
X54114077Y-70389845D01*
X54156154Y-70387950D01*
X54193897Y-70406717D01*
X54219966Y-70442915D01*
X54227486Y-70482748D01*
X54366767Y-70482748D01*
X54362806Y-70446027D01*
X54338450Y-70376212D01*
X54304544Y-70327302D01*
X54243347Y-70277878D01*
X54175937Y-70253359D01*
X54107120Y-70251797D01*
X54041697Y-70271239D01*
G36*
X52834114Y-70191289D02*
X52829861Y-70250613D01*
X52824975Y-70285572D01*
X52818205Y-70300820D01*
X52808298Y-70301015D01*
X52805086Y-70299195D01*
X52762356Y-70286015D01*
X52706773Y-70286785D01*
X52650263Y-70300333D01*
X52614918Y-70317861D01*
X52578679Y-70345861D01*
X52552187Y-70377549D01*
X52534001Y-70417813D01*
X52522678Y-70471543D01*
X52516778Y-70543626D01*
X52514857Y-70638951D01*
X52514823Y-70657237D01*
X52514800Y-70862646D01*
X52560509Y-70878580D01*
X52592973Y-70889420D01*
X52610785Y-70894468D01*
X52611309Y-70894514D01*
X52613063Y-70880828D01*
X52614556Y-70843076D01*
X52615674Y-70786224D01*
X52616303Y-70715234D01*
X52616400Y-70672073D01*
X52616602Y-70586973D01*
X52617642Y-70525981D01*
X52620169Y-70484177D01*
X52624836Y-70456642D01*
X52632293Y-70438456D01*
X52643189Y-70424698D01*
X52649993Y-70418073D01*
X52696728Y-70391375D01*
X52747728Y-70389375D01*
X52793999Y-70411955D01*
X52802556Y-70420107D01*
X52815107Y-70435436D01*
X52823812Y-70453618D01*
X52829369Y-70479909D01*
X52832474Y-70519562D01*
X52833824Y-70577832D01*
X52834114Y-70658173D01*
X52834114Y-70862646D01*
X52879823Y-70878580D01*
X52912287Y-70889420D01*
X52930099Y-70894468D01*
X52930623Y-70894514D01*
X52931963Y-70880623D01*
X52933172Y-70841439D01*
X52934199Y-70780700D01*
X52934998Y-70702141D01*
X52935519Y-70609498D01*
X52935714Y-70506509D01*
X52935714Y-70109342D01*
X52888543Y-70089444D01*
X52841371Y-70069547D01*
X52834114Y-70191289D01*
X52834114Y-70191289D01*
G37*
X52834114Y-70191289D02*
X52829861Y-70250613D01*
X52824975Y-70285572D01*
X52818205Y-70300820D01*
X52808298Y-70301015D01*
X52805086Y-70299195D01*
X52762356Y-70286015D01*
X52706773Y-70286785D01*
X52650263Y-70300333D01*
X52614918Y-70317861D01*
X52578679Y-70345861D01*
X52552187Y-70377549D01*
X52534001Y-70417813D01*
X52522678Y-70471543D01*
X52516778Y-70543626D01*
X52514857Y-70638951D01*
X52514823Y-70657237D01*
X52514800Y-70862646D01*
X52560509Y-70878580D01*
X52592973Y-70889420D01*
X52610785Y-70894468D01*
X52611309Y-70894514D01*
X52613063Y-70880828D01*
X52614556Y-70843076D01*
X52615674Y-70786224D01*
X52616303Y-70715234D01*
X52616400Y-70672073D01*
X52616602Y-70586973D01*
X52617642Y-70525981D01*
X52620169Y-70484177D01*
X52624836Y-70456642D01*
X52632293Y-70438456D01*
X52643189Y-70424698D01*
X52649993Y-70418073D01*
X52696728Y-70391375D01*
X52747728Y-70389375D01*
X52793999Y-70411955D01*
X52802556Y-70420107D01*
X52815107Y-70435436D01*
X52823812Y-70453618D01*
X52829369Y-70479909D01*
X52832474Y-70519562D01*
X52833824Y-70577832D01*
X52834114Y-70658173D01*
X52834114Y-70862646D01*
X52879823Y-70878580D01*
X52912287Y-70889420D01*
X52930099Y-70894468D01*
X52930623Y-70894514D01*
X52931963Y-70880623D01*
X52933172Y-70841439D01*
X52934199Y-70780700D01*
X52934998Y-70702141D01*
X52935519Y-70609498D01*
X52935714Y-70506509D01*
X52935714Y-70109342D01*
X52888543Y-70089444D01*
X52841371Y-70069547D01*
X52834114Y-70191289D01*
G36*
X52170256Y-70290968D02*
X52113384Y-70312087D01*
X52112733Y-70312493D01*
X52077560Y-70338380D01*
X52051593Y-70368633D01*
X52033330Y-70408058D01*
X52021268Y-70461462D01*
X52013904Y-70533651D01*
X52009736Y-70629432D01*
X52009371Y-70643078D01*
X52004124Y-70848842D01*
X52048284Y-70871678D01*
X52080237Y-70887110D01*
X52099530Y-70894423D01*
X52100422Y-70894514D01*
X52103761Y-70881022D01*
X52106413Y-70844626D01*
X52108044Y-70791452D01*
X52108400Y-70748393D01*
X52108408Y-70678641D01*
X52111597Y-70634837D01*
X52122712Y-70613944D01*
X52146499Y-70612925D01*
X52187704Y-70628741D01*
X52249914Y-70657815D01*
X52295659Y-70681963D01*
X52319187Y-70702913D01*
X52326104Y-70725747D01*
X52326114Y-70726877D01*
X52314701Y-70766212D01*
X52280908Y-70787462D01*
X52229191Y-70790539D01*
X52191939Y-70790006D01*
X52172297Y-70800735D01*
X52160048Y-70826505D01*
X52152998Y-70859337D01*
X52163158Y-70877966D01*
X52166983Y-70880632D01*
X52202999Y-70891340D01*
X52253434Y-70892856D01*
X52305374Y-70885759D01*
X52342178Y-70872788D01*
X52393062Y-70829585D01*
X52421986Y-70769446D01*
X52427714Y-70722462D01*
X52423343Y-70680082D01*
X52407525Y-70645488D01*
X52376203Y-70614763D01*
X52325322Y-70583990D01*
X52250824Y-70549252D01*
X52246286Y-70547288D01*
X52179179Y-70516287D01*
X52137768Y-70490862D01*
X52120019Y-70468014D01*
X52123893Y-70444745D01*
X52147357Y-70418056D01*
X52154373Y-70411914D01*
X52201370Y-70388100D01*
X52250067Y-70389103D01*
X52292478Y-70412451D01*
X52320616Y-70455675D01*
X52323231Y-70464160D01*
X52348692Y-70505308D01*
X52380999Y-70525128D01*
X52427714Y-70544770D01*
X52427714Y-70493950D01*
X52413504Y-70420082D01*
X52371325Y-70352327D01*
X52349376Y-70329661D01*
X52299483Y-70300569D01*
X52236033Y-70287400D01*
X52170256Y-70290968D01*
X52170256Y-70290968D01*
G37*
X52170256Y-70290968D02*
X52113384Y-70312087D01*
X52112733Y-70312493D01*
X52077560Y-70338380D01*
X52051593Y-70368633D01*
X52033330Y-70408058D01*
X52021268Y-70461462D01*
X52013904Y-70533651D01*
X52009736Y-70629432D01*
X52009371Y-70643078D01*
X52004124Y-70848842D01*
X52048284Y-70871678D01*
X52080237Y-70887110D01*
X52099530Y-70894423D01*
X52100422Y-70894514D01*
X52103761Y-70881022D01*
X52106413Y-70844626D01*
X52108044Y-70791452D01*
X52108400Y-70748393D01*
X52108408Y-70678641D01*
X52111597Y-70634837D01*
X52122712Y-70613944D01*
X52146499Y-70612925D01*
X52187704Y-70628741D01*
X52249914Y-70657815D01*
X52295659Y-70681963D01*
X52319187Y-70702913D01*
X52326104Y-70725747D01*
X52326114Y-70726877D01*
X52314701Y-70766212D01*
X52280908Y-70787462D01*
X52229191Y-70790539D01*
X52191939Y-70790006D01*
X52172297Y-70800735D01*
X52160048Y-70826505D01*
X52152998Y-70859337D01*
X52163158Y-70877966D01*
X52166983Y-70880632D01*
X52202999Y-70891340D01*
X52253434Y-70892856D01*
X52305374Y-70885759D01*
X52342178Y-70872788D01*
X52393062Y-70829585D01*
X52421986Y-70769446D01*
X52427714Y-70722462D01*
X52423343Y-70680082D01*
X52407525Y-70645488D01*
X52376203Y-70614763D01*
X52325322Y-70583990D01*
X52250824Y-70549252D01*
X52246286Y-70547288D01*
X52179179Y-70516287D01*
X52137768Y-70490862D01*
X52120019Y-70468014D01*
X52123893Y-70444745D01*
X52147357Y-70418056D01*
X52154373Y-70411914D01*
X52201370Y-70388100D01*
X52250067Y-70389103D01*
X52292478Y-70412451D01*
X52320616Y-70455675D01*
X52323231Y-70464160D01*
X52348692Y-70505308D01*
X52380999Y-70525128D01*
X52427714Y-70544770D01*
X52427714Y-70493950D01*
X52413504Y-70420082D01*
X52371325Y-70352327D01*
X52349376Y-70329661D01*
X52299483Y-70300569D01*
X52236033Y-70287400D01*
X52170256Y-70290968D01*
G36*
X51680074Y-70289755D02*
X51614142Y-70314084D01*
X51560727Y-70357117D01*
X51539836Y-70387409D01*
X51517061Y-70442994D01*
X51517534Y-70483186D01*
X51541438Y-70510217D01*
X51550283Y-70514813D01*
X51588470Y-70529144D01*
X51607972Y-70525472D01*
X51614578Y-70501407D01*
X51614914Y-70488114D01*
X51627008Y-70439210D01*
X51658529Y-70404999D01*
X51702341Y-70388476D01*
X51751305Y-70392634D01*
X51791106Y-70414227D01*
X51804550Y-70426544D01*
X51814079Y-70441487D01*
X51820515Y-70464075D01*
X51824683Y-70499328D01*
X51827403Y-70552266D01*
X51829498Y-70627907D01*
X51830040Y-70651857D01*
X51832019Y-70733790D01*
X51834269Y-70791455D01*
X51837643Y-70829608D01*
X51842994Y-70853004D01*
X51851176Y-70866398D01*
X51863041Y-70874545D01*
X51870638Y-70878144D01*
X51902898Y-70890452D01*
X51921889Y-70894514D01*
X51928164Y-70880948D01*
X51931994Y-70839934D01*
X51933400Y-70770999D01*
X51932402Y-70673669D01*
X51932092Y-70658657D01*
X51929899Y-70569859D01*
X51927307Y-70505019D01*
X51923618Y-70459067D01*
X51918136Y-70426935D01*
X51910165Y-70403553D01*
X51899007Y-70383852D01*
X51893170Y-70375410D01*
X51859704Y-70338057D01*
X51822273Y-70309003D01*
X51817691Y-70306467D01*
X51750574Y-70286443D01*
X51680074Y-70289755D01*
X51680074Y-70289755D01*
G37*
X51680074Y-70289755D02*
X51614142Y-70314084D01*
X51560727Y-70357117D01*
X51539836Y-70387409D01*
X51517061Y-70442994D01*
X51517534Y-70483186D01*
X51541438Y-70510217D01*
X51550283Y-70514813D01*
X51588470Y-70529144D01*
X51607972Y-70525472D01*
X51614578Y-70501407D01*
X51614914Y-70488114D01*
X51627008Y-70439210D01*
X51658529Y-70404999D01*
X51702341Y-70388476D01*
X51751305Y-70392634D01*
X51791106Y-70414227D01*
X51804550Y-70426544D01*
X51814079Y-70441487D01*
X51820515Y-70464075D01*
X51824683Y-70499328D01*
X51827403Y-70552266D01*
X51829498Y-70627907D01*
X51830040Y-70651857D01*
X51832019Y-70733790D01*
X51834269Y-70791455D01*
X51837643Y-70829608D01*
X51842994Y-70853004D01*
X51851176Y-70866398D01*
X51863041Y-70874545D01*
X51870638Y-70878144D01*
X51902898Y-70890452D01*
X51921889Y-70894514D01*
X51928164Y-70880948D01*
X51931994Y-70839934D01*
X51933400Y-70770999D01*
X51932402Y-70673669D01*
X51932092Y-70658657D01*
X51929899Y-70569859D01*
X51927307Y-70505019D01*
X51923618Y-70459067D01*
X51918136Y-70426935D01*
X51910165Y-70403553D01*
X51899007Y-70383852D01*
X51893170Y-70375410D01*
X51859704Y-70338057D01*
X51822273Y-70309003D01*
X51817691Y-70306467D01*
X51750574Y-70286443D01*
X51680074Y-70289755D01*
G36*
X51019883Y-70405358D02*
X51020067Y-70513837D01*
X51020781Y-70597287D01*
X51022325Y-70659704D01*
X51024999Y-70705085D01*
X51029106Y-70737429D01*
X51034945Y-70760733D01*
X51042818Y-70778995D01*
X51048779Y-70789418D01*
X51098145Y-70845945D01*
X51160736Y-70881377D01*
X51229987Y-70894090D01*
X51299332Y-70882463D01*
X51340625Y-70861568D01*
X51383975Y-70825422D01*
X51413519Y-70781276D01*
X51431345Y-70723462D01*
X51439537Y-70646313D01*
X51440698Y-70589714D01*
X51440542Y-70585647D01*
X51339143Y-70585647D01*
X51338524Y-70650550D01*
X51335686Y-70693514D01*
X51329160Y-70721622D01*
X51317477Y-70741953D01*
X51303517Y-70757288D01*
X51256635Y-70786890D01*
X51206299Y-70789419D01*
X51158724Y-70764705D01*
X51155021Y-70761356D01*
X51139217Y-70743935D01*
X51129307Y-70723209D01*
X51123942Y-70692362D01*
X51121772Y-70644577D01*
X51121429Y-70591748D01*
X51122173Y-70525381D01*
X51125252Y-70481106D01*
X51131939Y-70452009D01*
X51143504Y-70431173D01*
X51152987Y-70420107D01*
X51197040Y-70392198D01*
X51247776Y-70388843D01*
X51296204Y-70410159D01*
X51305550Y-70418073D01*
X51321460Y-70435647D01*
X51331390Y-70456587D01*
X51336722Y-70487782D01*
X51338837Y-70536122D01*
X51339143Y-70585647D01*
X51440542Y-70585647D01*
X51437190Y-70498568D01*
X51425274Y-70430086D01*
X51402865Y-70378600D01*
X51367876Y-70338443D01*
X51340625Y-70317861D01*
X51291093Y-70295625D01*
X51233684Y-70285304D01*
X51180318Y-70288067D01*
X51150457Y-70299212D01*
X51138739Y-70302383D01*
X51130963Y-70290557D01*
X51125535Y-70258866D01*
X51121429Y-70210593D01*
X51116933Y-70156829D01*
X51110687Y-70124482D01*
X51099324Y-70105985D01*
X51079472Y-70093770D01*
X51067000Y-70088362D01*
X51019829Y-70068601D01*
X51019883Y-70405358D01*
X51019883Y-70405358D01*
G37*
X51019883Y-70405358D02*
X51020067Y-70513837D01*
X51020781Y-70597287D01*
X51022325Y-70659704D01*
X51024999Y-70705085D01*
X51029106Y-70737429D01*
X51034945Y-70760733D01*
X51042818Y-70778995D01*
X51048779Y-70789418D01*
X51098145Y-70845945D01*
X51160736Y-70881377D01*
X51229987Y-70894090D01*
X51299332Y-70882463D01*
X51340625Y-70861568D01*
X51383975Y-70825422D01*
X51413519Y-70781276D01*
X51431345Y-70723462D01*
X51439537Y-70646313D01*
X51440698Y-70589714D01*
X51440542Y-70585647D01*
X51339143Y-70585647D01*
X51338524Y-70650550D01*
X51335686Y-70693514D01*
X51329160Y-70721622D01*
X51317477Y-70741953D01*
X51303517Y-70757288D01*
X51256635Y-70786890D01*
X51206299Y-70789419D01*
X51158724Y-70764705D01*
X51155021Y-70761356D01*
X51139217Y-70743935D01*
X51129307Y-70723209D01*
X51123942Y-70692362D01*
X51121772Y-70644577D01*
X51121429Y-70591748D01*
X51122173Y-70525381D01*
X51125252Y-70481106D01*
X51131939Y-70452009D01*
X51143504Y-70431173D01*
X51152987Y-70420107D01*
X51197040Y-70392198D01*
X51247776Y-70388843D01*
X51296204Y-70410159D01*
X51305550Y-70418073D01*
X51321460Y-70435647D01*
X51331390Y-70456587D01*
X51336722Y-70487782D01*
X51338837Y-70536122D01*
X51339143Y-70585647D01*
X51440542Y-70585647D01*
X51437190Y-70498568D01*
X51425274Y-70430086D01*
X51402865Y-70378600D01*
X51367876Y-70338443D01*
X51340625Y-70317861D01*
X51291093Y-70295625D01*
X51233684Y-70285304D01*
X51180318Y-70288067D01*
X51150457Y-70299212D01*
X51138739Y-70302383D01*
X51130963Y-70290557D01*
X51125535Y-70258866D01*
X51121429Y-70210593D01*
X51116933Y-70156829D01*
X51110687Y-70124482D01*
X51099324Y-70105985D01*
X51079472Y-70093770D01*
X51067000Y-70088362D01*
X51019829Y-70068601D01*
X51019883Y-70405358D01*
G36*
X50430167Y-70298663D02*
X50427952Y-70336850D01*
X50426216Y-70394886D01*
X50425101Y-70468180D01*
X50424743Y-70545055D01*
X50424743Y-70805196D01*
X50470674Y-70851127D01*
X50502325Y-70879429D01*
X50530110Y-70890893D01*
X50568085Y-70890168D01*
X50583160Y-70888321D01*
X50630274Y-70882948D01*
X50669244Y-70879869D01*
X50678743Y-70879585D01*
X50710767Y-70881445D01*
X50756568Y-70886114D01*
X50774326Y-70888321D01*
X50817943Y-70891735D01*
X50847255Y-70884320D01*
X50876320Y-70861427D01*
X50886812Y-70851127D01*
X50932743Y-70805196D01*
X50932743Y-70318602D01*
X50895774Y-70301758D01*
X50863941Y-70289282D01*
X50845317Y-70284914D01*
X50840542Y-70298718D01*
X50836079Y-70337286D01*
X50832225Y-70396356D01*
X50829278Y-70471663D01*
X50827857Y-70535286D01*
X50823886Y-70785657D01*
X50789241Y-70790556D01*
X50757732Y-70787131D01*
X50742292Y-70776041D01*
X50737977Y-70755308D01*
X50734292Y-70711145D01*
X50731531Y-70649146D01*
X50729988Y-70574909D01*
X50729765Y-70536706D01*
X50729543Y-70316783D01*
X50683834Y-70300849D01*
X50651482Y-70290015D01*
X50633885Y-70284962D01*
X50633377Y-70284914D01*
X50631612Y-70298648D01*
X50629671Y-70336730D01*
X50627718Y-70394482D01*
X50625916Y-70467227D01*
X50624657Y-70535286D01*
X50620686Y-70785657D01*
X50533600Y-70785657D01*
X50529604Y-70557240D01*
X50525608Y-70328822D01*
X50483153Y-70306868D01*
X50451808Y-70291793D01*
X50433256Y-70284951D01*
X50432721Y-70284914D01*
X50430167Y-70298663D01*
X50430167Y-70298663D01*
G37*
X50430167Y-70298663D02*
X50427952Y-70336850D01*
X50426216Y-70394886D01*
X50425101Y-70468180D01*
X50424743Y-70545055D01*
X50424743Y-70805196D01*
X50470674Y-70851127D01*
X50502325Y-70879429D01*
X50530110Y-70890893D01*
X50568085Y-70890168D01*
X50583160Y-70888321D01*
X50630274Y-70882948D01*
X50669244Y-70879869D01*
X50678743Y-70879585D01*
X50710767Y-70881445D01*
X50756568Y-70886114D01*
X50774326Y-70888321D01*
X50817943Y-70891735D01*
X50847255Y-70884320D01*
X50876320Y-70861427D01*
X50886812Y-70851127D01*
X50932743Y-70805196D01*
X50932743Y-70318602D01*
X50895774Y-70301758D01*
X50863941Y-70289282D01*
X50845317Y-70284914D01*
X50840542Y-70298718D01*
X50836079Y-70337286D01*
X50832225Y-70396356D01*
X50829278Y-70471663D01*
X50827857Y-70535286D01*
X50823886Y-70785657D01*
X50789241Y-70790556D01*
X50757732Y-70787131D01*
X50742292Y-70776041D01*
X50737977Y-70755308D01*
X50734292Y-70711145D01*
X50731531Y-70649146D01*
X50729988Y-70574909D01*
X50729765Y-70536706D01*
X50729543Y-70316783D01*
X50683834Y-70300849D01*
X50651482Y-70290015D01*
X50633885Y-70284962D01*
X50633377Y-70284914D01*
X50631612Y-70298648D01*
X50629671Y-70336730D01*
X50627718Y-70394482D01*
X50625916Y-70467227D01*
X50624657Y-70535286D01*
X50620686Y-70785657D01*
X50533600Y-70785657D01*
X50529604Y-70557240D01*
X50525608Y-70328822D01*
X50483153Y-70306868D01*
X50451808Y-70291793D01*
X50433256Y-70284951D01*
X50432721Y-70284914D01*
X50430167Y-70298663D01*
G36*
X50065124Y-70296335D02*
X50023333Y-70315344D01*
X49990531Y-70338378D01*
X49966497Y-70364133D01*
X49949903Y-70397358D01*
X49939423Y-70442800D01*
X49933729Y-70505207D01*
X49931493Y-70589327D01*
X49931257Y-70644721D01*
X49931257Y-70860826D01*
X49968226Y-70877670D01*
X49997344Y-70889981D01*
X50011769Y-70894514D01*
X50014528Y-70881025D01*
X50016718Y-70844653D01*
X50018058Y-70791542D01*
X50018343Y-70749372D01*
X50019566Y-70688447D01*
X50022864Y-70640115D01*
X50027679Y-70610518D01*
X50031504Y-70604229D01*
X50057217Y-70610652D01*
X50097582Y-70627125D01*
X50144321Y-70649458D01*
X50189155Y-70673457D01*
X50223807Y-70694930D01*
X50239998Y-70709685D01*
X50240062Y-70709845D01*
X50238670Y-70737152D01*
X50226182Y-70763219D01*
X50204257Y-70784392D01*
X50172257Y-70791474D01*
X50144908Y-70790649D01*
X50106174Y-70790042D01*
X50085842Y-70799116D01*
X50073631Y-70823092D01*
X50072091Y-70827613D01*
X50066797Y-70861806D01*
X50080953Y-70882568D01*
X50117852Y-70892462D01*
X50157711Y-70894292D01*
X50229438Y-70880727D01*
X50266568Y-70861355D01*
X50312424Y-70815845D01*
X50336744Y-70759983D01*
X50338927Y-70700957D01*
X50318371Y-70645953D01*
X50287451Y-70611486D01*
X50256580Y-70592189D01*
X50208058Y-70567759D01*
X50151515Y-70542985D01*
X50142090Y-70539199D01*
X50079981Y-70511791D01*
X50044178Y-70487634D01*
X50032663Y-70463619D01*
X50043420Y-70436635D01*
X50061886Y-70415543D01*
X50105531Y-70389572D01*
X50153554Y-70387624D01*
X50197594Y-70407637D01*
X50229291Y-70447551D01*
X50233451Y-70457848D01*
X50257673Y-70495724D01*
X50293035Y-70523842D01*
X50337657Y-70546917D01*
X50337657Y-70481485D01*
X50335031Y-70441506D01*
X50323770Y-70409997D01*
X50298801Y-70376378D01*
X50274831Y-70350484D01*
X50237559Y-70313817D01*
X50208599Y-70294121D01*
X50177495Y-70286220D01*
X50142287Y-70284914D01*
X50065124Y-70296335D01*
X50065124Y-70296335D01*
G37*
X50065124Y-70296335D02*
X50023333Y-70315344D01*
X49990531Y-70338378D01*
X49966497Y-70364133D01*
X49949903Y-70397358D01*
X49939423Y-70442800D01*
X49933729Y-70505207D01*
X49931493Y-70589327D01*
X49931257Y-70644721D01*
X49931257Y-70860826D01*
X49968226Y-70877670D01*
X49997344Y-70889981D01*
X50011769Y-70894514D01*
X50014528Y-70881025D01*
X50016718Y-70844653D01*
X50018058Y-70791542D01*
X50018343Y-70749372D01*
X50019566Y-70688447D01*
X50022864Y-70640115D01*
X50027679Y-70610518D01*
X50031504Y-70604229D01*
X50057217Y-70610652D01*
X50097582Y-70627125D01*
X50144321Y-70649458D01*
X50189155Y-70673457D01*
X50223807Y-70694930D01*
X50239998Y-70709685D01*
X50240062Y-70709845D01*
X50238670Y-70737152D01*
X50226182Y-70763219D01*
X50204257Y-70784392D01*
X50172257Y-70791474D01*
X50144908Y-70790649D01*
X50106174Y-70790042D01*
X50085842Y-70799116D01*
X50073631Y-70823092D01*
X50072091Y-70827613D01*
X50066797Y-70861806D01*
X50080953Y-70882568D01*
X50117852Y-70892462D01*
X50157711Y-70894292D01*
X50229438Y-70880727D01*
X50266568Y-70861355D01*
X50312424Y-70815845D01*
X50336744Y-70759983D01*
X50338927Y-70700957D01*
X50318371Y-70645953D01*
X50287451Y-70611486D01*
X50256580Y-70592189D01*
X50208058Y-70567759D01*
X50151515Y-70542985D01*
X50142090Y-70539199D01*
X50079981Y-70511791D01*
X50044178Y-70487634D01*
X50032663Y-70463619D01*
X50043420Y-70436635D01*
X50061886Y-70415543D01*
X50105531Y-70389572D01*
X50153554Y-70387624D01*
X50197594Y-70407637D01*
X50229291Y-70447551D01*
X50233451Y-70457848D01*
X50257673Y-70495724D01*
X50293035Y-70523842D01*
X50337657Y-70546917D01*
X50337657Y-70481485D01*
X50335031Y-70441506D01*
X50323770Y-70409997D01*
X50298801Y-70376378D01*
X50274831Y-70350484D01*
X50237559Y-70313817D01*
X50208599Y-70294121D01*
X50177495Y-70286220D01*
X50142287Y-70284914D01*
X50065124Y-70296335D01*
G36*
X49557400Y-70298752D02*
X49540052Y-70306334D01*
X49498644Y-70339128D01*
X49463235Y-70386547D01*
X49441336Y-70437151D01*
X49437771Y-70462098D01*
X49449721Y-70496927D01*
X49475933Y-70515357D01*
X49504036Y-70526516D01*
X49516905Y-70528572D01*
X49523171Y-70513649D01*
X49535544Y-70481175D01*
X49540972Y-70466502D01*
X49571410Y-70415744D01*
X49615480Y-70390427D01*
X49671990Y-70391206D01*
X49676175Y-70392203D01*
X49706345Y-70406507D01*
X49728524Y-70434393D01*
X49743673Y-70479287D01*
X49752750Y-70544615D01*
X49756714Y-70633804D01*
X49757086Y-70681261D01*
X49757270Y-70756071D01*
X49758478Y-70807069D01*
X49761691Y-70839471D01*
X49767891Y-70858495D01*
X49778060Y-70869356D01*
X49793181Y-70877272D01*
X49794054Y-70877670D01*
X49823172Y-70889981D01*
X49837597Y-70894514D01*
X49839814Y-70880809D01*
X49841711Y-70842925D01*
X49843153Y-70785715D01*
X49844002Y-70714027D01*
X49844171Y-70661565D01*
X49843308Y-70560047D01*
X49839930Y-70483032D01*
X49832858Y-70426023D01*
X49820912Y-70384526D01*
X49802910Y-70354043D01*
X49777673Y-70330080D01*
X49752753Y-70313355D01*
X49692829Y-70291097D01*
X49623089Y-70286076D01*
X49557400Y-70298752D01*
X49557400Y-70298752D01*
G37*
X49557400Y-70298752D02*
X49540052Y-70306334D01*
X49498644Y-70339128D01*
X49463235Y-70386547D01*
X49441336Y-70437151D01*
X49437771Y-70462098D01*
X49449721Y-70496927D01*
X49475933Y-70515357D01*
X49504036Y-70526516D01*
X49516905Y-70528572D01*
X49523171Y-70513649D01*
X49535544Y-70481175D01*
X49540972Y-70466502D01*
X49571410Y-70415744D01*
X49615480Y-70390427D01*
X49671990Y-70391206D01*
X49676175Y-70392203D01*
X49706345Y-70406507D01*
X49728524Y-70434393D01*
X49743673Y-70479287D01*
X49752750Y-70544615D01*
X49756714Y-70633804D01*
X49757086Y-70681261D01*
X49757270Y-70756071D01*
X49758478Y-70807069D01*
X49761691Y-70839471D01*
X49767891Y-70858495D01*
X49778060Y-70869356D01*
X49793181Y-70877272D01*
X49794054Y-70877670D01*
X49823172Y-70889981D01*
X49837597Y-70894514D01*
X49839814Y-70880809D01*
X49841711Y-70842925D01*
X49843153Y-70785715D01*
X49844002Y-70714027D01*
X49844171Y-70661565D01*
X49843308Y-70560047D01*
X49839930Y-70483032D01*
X49832858Y-70426023D01*
X49820912Y-70384526D01*
X49802910Y-70354043D01*
X49777673Y-70330080D01*
X49752753Y-70313355D01*
X49692829Y-70291097D01*
X49623089Y-70286076D01*
X49557400Y-70298752D01*
G36*
X49056405Y-70306966D02*
X48998979Y-70344497D01*
X48971281Y-70378096D01*
X48949338Y-70439064D01*
X48947595Y-70487308D01*
X48951543Y-70551816D01*
X49100314Y-70616934D01*
X49172651Y-70650202D01*
X49219916Y-70676964D01*
X49244493Y-70700144D01*
X49248763Y-70722667D01*
X49235111Y-70747455D01*
X49220057Y-70763886D01*
X49176254Y-70790235D01*
X49128611Y-70792081D01*
X49084855Y-70771546D01*
X49052711Y-70730752D01*
X49046962Y-70716347D01*
X49019424Y-70671356D01*
X48987742Y-70652182D01*
X48944286Y-70635779D01*
X48944286Y-70697966D01*
X48948128Y-70740283D01*
X48963177Y-70775969D01*
X48994720Y-70816943D01*
X48999408Y-70822267D01*
X49034494Y-70858720D01*
X49064653Y-70878283D01*
X49102385Y-70887283D01*
X49133665Y-70890230D01*
X49189615Y-70890965D01*
X49229445Y-70881660D01*
X49254292Y-70867846D01*
X49293344Y-70837467D01*
X49320375Y-70804613D01*
X49337483Y-70763294D01*
X49346762Y-70707521D01*
X49350307Y-70631305D01*
X49350590Y-70592622D01*
X49349628Y-70546247D01*
X49261993Y-70546247D01*
X49260977Y-70571126D01*
X49258444Y-70575200D01*
X49241726Y-70569665D01*
X49205751Y-70555017D01*
X49157669Y-70534190D01*
X49147614Y-70529714D01*
X49086848Y-70498814D01*
X49053368Y-70471657D01*
X49046010Y-70446220D01*
X49063609Y-70420481D01*
X49078144Y-70409109D01*
X49130590Y-70386364D01*
X49179678Y-70390122D01*
X49220773Y-70417884D01*
X49249242Y-70467152D01*
X49258369Y-70506257D01*
X49261993Y-70546247D01*
X49349628Y-70546247D01*
X49348715Y-70502249D01*
X49341804Y-70435384D01*
X49328116Y-70386695D01*
X49305904Y-70350849D01*
X49273426Y-70322513D01*
X49259267Y-70313355D01*
X49194947Y-70289507D01*
X49124527Y-70288006D01*
X49056405Y-70306966D01*
X49056405Y-70306966D01*
G37*
X49056405Y-70306966D02*
X48998979Y-70344497D01*
X48971281Y-70378096D01*
X48949338Y-70439064D01*
X48947595Y-70487308D01*
X48951543Y-70551816D01*
X49100314Y-70616934D01*
X49172651Y-70650202D01*
X49219916Y-70676964D01*
X49244493Y-70700144D01*
X49248763Y-70722667D01*
X49235111Y-70747455D01*
X49220057Y-70763886D01*
X49176254Y-70790235D01*
X49128611Y-70792081D01*
X49084855Y-70771546D01*
X49052711Y-70730752D01*
X49046962Y-70716347D01*
X49019424Y-70671356D01*
X48987742Y-70652182D01*
X48944286Y-70635779D01*
X48944286Y-70697966D01*
X48948128Y-70740283D01*
X48963177Y-70775969D01*
X48994720Y-70816943D01*
X48999408Y-70822267D01*
X49034494Y-70858720D01*
X49064653Y-70878283D01*
X49102385Y-70887283D01*
X49133665Y-70890230D01*
X49189615Y-70890965D01*
X49229445Y-70881660D01*
X49254292Y-70867846D01*
X49293344Y-70837467D01*
X49320375Y-70804613D01*
X49337483Y-70763294D01*
X49346762Y-70707521D01*
X49350307Y-70631305D01*
X49350590Y-70592622D01*
X49349628Y-70546247D01*
X49261993Y-70546247D01*
X49260977Y-70571126D01*
X49258444Y-70575200D01*
X49241726Y-70569665D01*
X49205751Y-70555017D01*
X49157669Y-70534190D01*
X49147614Y-70529714D01*
X49086848Y-70498814D01*
X49053368Y-70471657D01*
X49046010Y-70446220D01*
X49063609Y-70420481D01*
X49078144Y-70409109D01*
X49130590Y-70386364D01*
X49179678Y-70390122D01*
X49220773Y-70417884D01*
X49249242Y-70467152D01*
X49258369Y-70506257D01*
X49261993Y-70546247D01*
X49349628Y-70546247D01*
X49348715Y-70502249D01*
X49341804Y-70435384D01*
X49328116Y-70386695D01*
X49305904Y-70350849D01*
X49273426Y-70322513D01*
X49259267Y-70313355D01*
X49194947Y-70289507D01*
X49124527Y-70288006D01*
X49056405Y-70306966D01*
G36*
X52106090Y-65582348D02*
X52027546Y-65582778D01*
X51970702Y-65583942D01*
X51931895Y-65586207D01*
X51907462Y-65589940D01*
X51893738Y-65595506D01*
X51887060Y-65603273D01*
X51883764Y-65613605D01*
X51883444Y-65614943D01*
X51878438Y-65639079D01*
X51869171Y-65686701D01*
X51856608Y-65752741D01*
X51841713Y-65832128D01*
X51825449Y-65919796D01*
X51824881Y-65922875D01*
X51808590Y-66008789D01*
X51793348Y-66084696D01*
X51780139Y-66146045D01*
X51769946Y-66188282D01*
X51763752Y-66206855D01*
X51763457Y-66207184D01*
X51745212Y-66216253D01*
X51707595Y-66231367D01*
X51658729Y-66249262D01*
X51658457Y-66249358D01*
X51596907Y-66272493D01*
X51524343Y-66301965D01*
X51455943Y-66331597D01*
X51452706Y-66333062D01*
X51341298Y-66383626D01*
X51094601Y-66215160D01*
X51018923Y-66163803D01*
X50950369Y-66117889D01*
X50892912Y-66080030D01*
X50850524Y-66052837D01*
X50827175Y-66038921D01*
X50824958Y-66037889D01*
X50807990Y-66042484D01*
X50776299Y-66064655D01*
X50728648Y-66105447D01*
X50663802Y-66165905D01*
X50597603Y-66230227D01*
X50533786Y-66293612D01*
X50476671Y-66351451D01*
X50429695Y-66400175D01*
X50396297Y-66436210D01*
X50379915Y-66455984D01*
X50379306Y-66457002D01*
X50377495Y-66470572D01*
X50384317Y-66492733D01*
X50401460Y-66526478D01*
X50430607Y-66574800D01*
X50473445Y-66640692D01*
X50530552Y-66725517D01*
X50581234Y-66800177D01*
X50626539Y-66867140D01*
X50663850Y-66922516D01*
X50690548Y-66962420D01*
X50704015Y-66982962D01*
X50704863Y-66984356D01*
X50703219Y-67004038D01*
X50690755Y-67042293D01*
X50669952Y-67091889D01*
X50662538Y-67107728D01*
X50630186Y-67178290D01*
X50595672Y-67258353D01*
X50567635Y-67327629D01*
X50547432Y-67379045D01*
X50531385Y-67418119D01*
X50522112Y-67438541D01*
X50520959Y-67440114D01*
X50503904Y-67442721D01*
X50463702Y-67449863D01*
X50405698Y-67460523D01*
X50335237Y-67473685D01*
X50257665Y-67488333D01*
X50178328Y-67503449D01*
X50102569Y-67518018D01*
X50035736Y-67531022D01*
X49983172Y-67541445D01*
X49950224Y-67548270D01*
X49942143Y-67550199D01*
X49933795Y-67554962D01*
X49927494Y-67565718D01*
X49922955Y-67586098D01*
X49919896Y-67619734D01*
X49918033Y-67670255D01*
X49917082Y-67741292D01*
X49916760Y-67836476D01*
X49916743Y-67875492D01*
X49916743Y-68192799D01*
X49992943Y-68207839D01*
X50035337Y-68215995D01*
X50098600Y-68227899D01*
X50175038Y-68242116D01*
X50256957Y-68257210D01*
X50279600Y-68261355D01*
X50355194Y-68276053D01*
X50421047Y-68290505D01*
X50471634Y-68303375D01*
X50501426Y-68313322D01*
X50506388Y-68316287D01*
X50518574Y-68337283D01*
X50536047Y-68377967D01*
X50555423Y-68430322D01*
X50559266Y-68441600D01*
X50584661Y-68511523D01*
X50616183Y-68590418D01*
X50647031Y-68661266D01*
X50647183Y-68661595D01*
X50698553Y-68772733D01*
X50529601Y-69021253D01*
X50360648Y-69269772D01*
X50577571Y-69487058D01*
X50643181Y-69551726D01*
X50703021Y-69608733D01*
X50753733Y-69655033D01*
X50791954Y-69687584D01*
X50814325Y-69703343D01*
X50817534Y-69704343D01*
X50836374Y-69696469D01*
X50874820Y-69674578D01*
X50928670Y-69641267D01*
X50993724Y-69599131D01*
X51064060Y-69551943D01*
X51135445Y-69503810D01*
X51199092Y-69461928D01*
X51250959Y-69428871D01*
X51287005Y-69407218D01*
X51303133Y-69399543D01*
X51322811Y-69406037D01*
X51360125Y-69423150D01*
X51407379Y-69447326D01*
X51412388Y-69450013D01*
X51476023Y-69481927D01*
X51519659Y-69497579D01*
X51546798Y-69497745D01*
X51560943Y-69483204D01*
X51561025Y-69483000D01*
X51568095Y-69465779D01*
X51584958Y-69424899D01*
X51610305Y-69363525D01*
X51642829Y-69284819D01*
X51681222Y-69191947D01*
X51724178Y-69088072D01*
X51765778Y-68987502D01*
X51811496Y-68876516D01*
X51853474Y-68773703D01*
X51890452Y-68682215D01*
X51921173Y-68605201D01*
X51944378Y-68545815D01*
X51958810Y-68507209D01*
X51963257Y-68492800D01*
X51952104Y-68476272D01*
X51922931Y-68449930D01*
X51884029Y-68420887D01*
X51773243Y-68329039D01*
X51686649Y-68223759D01*
X51625284Y-68107266D01*
X51590185Y-67981776D01*
X51582392Y-67849507D01*
X51588057Y-67788457D01*
X51618922Y-67661795D01*
X51672080Y-67549941D01*
X51744233Y-67454001D01*
X51832083Y-67375076D01*
X51932335Y-67314270D01*
X52041690Y-67272687D01*
X52156853Y-67251428D01*
X52274525Y-67251599D01*
X52391410Y-67274301D01*
X52504211Y-67320638D01*
X52609631Y-67391713D01*
X52653632Y-67431911D01*
X52738021Y-67535129D01*
X52796778Y-67647925D01*
X52830296Y-67767010D01*
X52838965Y-67889095D01*
X52823177Y-68010893D01*
X52783322Y-68129116D01*
X52719793Y-68240475D01*
X52632979Y-68341684D01*
X52535971Y-68420887D01*
X52495563Y-68451162D01*
X52467018Y-68477219D01*
X52456743Y-68492825D01*
X52462123Y-68509843D01*
X52477425Y-68550500D01*
X52501388Y-68611642D01*
X52532756Y-68690119D01*
X52570268Y-68782780D01*
X52612667Y-68886472D01*
X52654337Y-68987526D01*
X52700310Y-69098607D01*
X52742893Y-69201541D01*
X52780779Y-69293165D01*
X52812660Y-69370316D01*
X52837229Y-69429831D01*
X52853180Y-69468544D01*
X52859090Y-69483000D01*
X52873052Y-69497685D01*
X52900060Y-69497642D01*
X52943587Y-69482099D01*
X53007110Y-69450284D01*
X53007612Y-69450013D01*
X53055440Y-69425323D01*
X53094103Y-69407338D01*
X53115905Y-69399614D01*
X53116867Y-69399543D01*
X53133279Y-69407378D01*
X53169513Y-69429165D01*
X53221526Y-69462328D01*
X53285275Y-69504291D01*
X53355940Y-69551943D01*
X53427884Y-69600191D01*
X53492726Y-69642151D01*
X53546265Y-69675227D01*
X53584303Y-69696821D01*
X53602467Y-69704343D01*
X53619192Y-69694457D01*
X53652820Y-69666826D01*
X53699990Y-69624495D01*
X53757342Y-69570505D01*
X53821516Y-69507899D01*
X53842503Y-69486983D01*
X54059501Y-69269623D01*
X53894332Y-69027220D01*
X53844136Y-68952781D01*
X53800081Y-68885972D01*
X53764638Y-68830665D01*
X53740281Y-68790729D01*
X53729478Y-68770036D01*
X53729162Y-68768563D01*
X53734857Y-68749058D01*
X53750174Y-68709822D01*
X53772463Y-68657430D01*
X53788107Y-68622355D01*
X53817359Y-68555201D01*
X53844906Y-68487358D01*
X53866263Y-68430034D01*
X53872065Y-68412572D01*
X53888548Y-68365938D01*
X53904660Y-68329905D01*
X53913510Y-68316287D01*
X53933040Y-68307952D01*
X53975666Y-68296137D01*
X54035855Y-68282181D01*
X54108078Y-68267422D01*
X54140400Y-68261355D01*
X54222478Y-68246273D01*
X54301205Y-68231669D01*
X54368891Y-68218980D01*
X54417840Y-68209642D01*
X54427057Y-68207839D01*
X54503257Y-68192799D01*
X54503257Y-67875492D01*
X54503086Y-67771154D01*
X54502384Y-67692213D01*
X54500866Y-67635038D01*
X54498251Y-67595999D01*
X54494254Y-67571465D01*
X54488591Y-67557805D01*
X54480980Y-67551389D01*
X54477857Y-67550199D01*
X54459022Y-67545980D01*
X54417412Y-67537562D01*
X54358370Y-67525961D01*
X54287243Y-67512195D01*
X54209375Y-67497280D01*
X54130113Y-67482232D01*
X54054802Y-67468069D01*
X53988787Y-67455806D01*
X53937413Y-67446461D01*
X53906025Y-67441050D01*
X53899041Y-67440114D01*
X53892715Y-67427596D01*
X53878710Y-67394246D01*
X53859645Y-67346377D01*
X53852366Y-67327629D01*
X53823004Y-67255195D01*
X53788429Y-67175170D01*
X53757463Y-67107728D01*
X53734677Y-67056159D01*
X53719518Y-67013785D01*
X53714458Y-66987834D01*
X53715264Y-66984356D01*
X53725959Y-66967936D01*
X53750380Y-66931417D01*
X53785905Y-66878687D01*
X53829913Y-66813635D01*
X53879783Y-66740151D01*
X53889644Y-66725645D01*
X53947508Y-66639704D01*
X53990044Y-66574261D01*
X54018946Y-66526304D01*
X54035910Y-66492820D01*
X54042633Y-66470795D01*
X54040810Y-66457217D01*
X54040764Y-66457131D01*
X54026414Y-66439297D01*
X53994677Y-66404817D01*
X53948990Y-66357268D01*
X53892796Y-66300222D01*
X53829532Y-66237255D01*
X53822398Y-66230227D01*
X53742670Y-66153020D01*
X53681143Y-66096330D01*
X53636579Y-66059110D01*
X53607743Y-66040315D01*
X53595042Y-66037889D01*
X53576506Y-66048471D01*
X53538039Y-66072916D01*
X53483614Y-66108612D01*
X53417202Y-66152947D01*
X53342775Y-66203311D01*
X53325399Y-66215160D01*
X53078703Y-66383626D01*
X52967294Y-66333062D01*
X52899543Y-66303595D01*
X52826817Y-66273959D01*
X52764297Y-66250330D01*
X52761543Y-66249358D01*
X52712640Y-66231457D01*
X52674943Y-66216320D01*
X52656575Y-66207210D01*
X52656544Y-66207184D01*
X52650715Y-66190717D01*
X52640808Y-66150219D01*
X52627805Y-66090242D01*
X52612691Y-66015340D01*
X52596448Y-65930064D01*
X52595119Y-65922875D01*
X52578825Y-65835014D01*
X52563867Y-65755260D01*
X52551209Y-65688681D01*
X52541814Y-65640347D01*
X52536646Y-65615325D01*
X52536556Y-65614943D01*
X52533411Y-65604299D01*
X52527296Y-65596262D01*
X52514547Y-65590467D01*
X52491500Y-65586547D01*
X52454491Y-65584135D01*
X52399856Y-65582865D01*
X52323933Y-65582371D01*
X52223056Y-65582286D01*
X52210000Y-65582286D01*
X52106090Y-65582348D01*
X52106090Y-65582348D01*
G37*
X52106090Y-65582348D02*
X52027546Y-65582778D01*
X51970702Y-65583942D01*
X51931895Y-65586207D01*
X51907462Y-65589940D01*
X51893738Y-65595506D01*
X51887060Y-65603273D01*
X51883764Y-65613605D01*
X51883444Y-65614943D01*
X51878438Y-65639079D01*
X51869171Y-65686701D01*
X51856608Y-65752741D01*
X51841713Y-65832128D01*
X51825449Y-65919796D01*
X51824881Y-65922875D01*
X51808590Y-66008789D01*
X51793348Y-66084696D01*
X51780139Y-66146045D01*
X51769946Y-66188282D01*
X51763752Y-66206855D01*
X51763457Y-66207184D01*
X51745212Y-66216253D01*
X51707595Y-66231367D01*
X51658729Y-66249262D01*
X51658457Y-66249358D01*
X51596907Y-66272493D01*
X51524343Y-66301965D01*
X51455943Y-66331597D01*
X51452706Y-66333062D01*
X51341298Y-66383626D01*
X51094601Y-66215160D01*
X51018923Y-66163803D01*
X50950369Y-66117889D01*
X50892912Y-66080030D01*
X50850524Y-66052837D01*
X50827175Y-66038921D01*
X50824958Y-66037889D01*
X50807990Y-66042484D01*
X50776299Y-66064655D01*
X50728648Y-66105447D01*
X50663802Y-66165905D01*
X50597603Y-66230227D01*
X50533786Y-66293612D01*
X50476671Y-66351451D01*
X50429695Y-66400175D01*
X50396297Y-66436210D01*
X50379915Y-66455984D01*
X50379306Y-66457002D01*
X50377495Y-66470572D01*
X50384317Y-66492733D01*
X50401460Y-66526478D01*
X50430607Y-66574800D01*
X50473445Y-66640692D01*
X50530552Y-66725517D01*
X50581234Y-66800177D01*
X50626539Y-66867140D01*
X50663850Y-66922516D01*
X50690548Y-66962420D01*
X50704015Y-66982962D01*
X50704863Y-66984356D01*
X50703219Y-67004038D01*
X50690755Y-67042293D01*
X50669952Y-67091889D01*
X50662538Y-67107728D01*
X50630186Y-67178290D01*
X50595672Y-67258353D01*
X50567635Y-67327629D01*
X50547432Y-67379045D01*
X50531385Y-67418119D01*
X50522112Y-67438541D01*
X50520959Y-67440114D01*
X50503904Y-67442721D01*
X50463702Y-67449863D01*
X50405698Y-67460523D01*
X50335237Y-67473685D01*
X50257665Y-67488333D01*
X50178328Y-67503449D01*
X50102569Y-67518018D01*
X50035736Y-67531022D01*
X49983172Y-67541445D01*
X49950224Y-67548270D01*
X49942143Y-67550199D01*
X49933795Y-67554962D01*
X49927494Y-67565718D01*
X49922955Y-67586098D01*
X49919896Y-67619734D01*
X49918033Y-67670255D01*
X49917082Y-67741292D01*
X49916760Y-67836476D01*
X49916743Y-67875492D01*
X49916743Y-68192799D01*
X49992943Y-68207839D01*
X50035337Y-68215995D01*
X50098600Y-68227899D01*
X50175038Y-68242116D01*
X50256957Y-68257210D01*
X50279600Y-68261355D01*
X50355194Y-68276053D01*
X50421047Y-68290505D01*
X50471634Y-68303375D01*
X50501426Y-68313322D01*
X50506388Y-68316287D01*
X50518574Y-68337283D01*
X50536047Y-68377967D01*
X50555423Y-68430322D01*
X50559266Y-68441600D01*
X50584661Y-68511523D01*
X50616183Y-68590418D01*
X50647031Y-68661266D01*
X50647183Y-68661595D01*
X50698553Y-68772733D01*
X50529601Y-69021253D01*
X50360648Y-69269772D01*
X50577571Y-69487058D01*
X50643181Y-69551726D01*
X50703021Y-69608733D01*
X50753733Y-69655033D01*
X50791954Y-69687584D01*
X50814325Y-69703343D01*
X50817534Y-69704343D01*
X50836374Y-69696469D01*
X50874820Y-69674578D01*
X50928670Y-69641267D01*
X50993724Y-69599131D01*
X51064060Y-69551943D01*
X51135445Y-69503810D01*
X51199092Y-69461928D01*
X51250959Y-69428871D01*
X51287005Y-69407218D01*
X51303133Y-69399543D01*
X51322811Y-69406037D01*
X51360125Y-69423150D01*
X51407379Y-69447326D01*
X51412388Y-69450013D01*
X51476023Y-69481927D01*
X51519659Y-69497579D01*
X51546798Y-69497745D01*
X51560943Y-69483204D01*
X51561025Y-69483000D01*
X51568095Y-69465779D01*
X51584958Y-69424899D01*
X51610305Y-69363525D01*
X51642829Y-69284819D01*
X51681222Y-69191947D01*
X51724178Y-69088072D01*
X51765778Y-68987502D01*
X51811496Y-68876516D01*
X51853474Y-68773703D01*
X51890452Y-68682215D01*
X51921173Y-68605201D01*
X51944378Y-68545815D01*
X51958810Y-68507209D01*
X51963257Y-68492800D01*
X51952104Y-68476272D01*
X51922931Y-68449930D01*
X51884029Y-68420887D01*
X51773243Y-68329039D01*
X51686649Y-68223759D01*
X51625284Y-68107266D01*
X51590185Y-67981776D01*
X51582392Y-67849507D01*
X51588057Y-67788457D01*
X51618922Y-67661795D01*
X51672080Y-67549941D01*
X51744233Y-67454001D01*
X51832083Y-67375076D01*
X51932335Y-67314270D01*
X52041690Y-67272687D01*
X52156853Y-67251428D01*
X52274525Y-67251599D01*
X52391410Y-67274301D01*
X52504211Y-67320638D01*
X52609631Y-67391713D01*
X52653632Y-67431911D01*
X52738021Y-67535129D01*
X52796778Y-67647925D01*
X52830296Y-67767010D01*
X52838965Y-67889095D01*
X52823177Y-68010893D01*
X52783322Y-68129116D01*
X52719793Y-68240475D01*
X52632979Y-68341684D01*
X52535971Y-68420887D01*
X52495563Y-68451162D01*
X52467018Y-68477219D01*
X52456743Y-68492825D01*
X52462123Y-68509843D01*
X52477425Y-68550500D01*
X52501388Y-68611642D01*
X52532756Y-68690119D01*
X52570268Y-68782780D01*
X52612667Y-68886472D01*
X52654337Y-68987526D01*
X52700310Y-69098607D01*
X52742893Y-69201541D01*
X52780779Y-69293165D01*
X52812660Y-69370316D01*
X52837229Y-69429831D01*
X52853180Y-69468544D01*
X52859090Y-69483000D01*
X52873052Y-69497685D01*
X52900060Y-69497642D01*
X52943587Y-69482099D01*
X53007110Y-69450284D01*
X53007612Y-69450013D01*
X53055440Y-69425323D01*
X53094103Y-69407338D01*
X53115905Y-69399614D01*
X53116867Y-69399543D01*
X53133279Y-69407378D01*
X53169513Y-69429165D01*
X53221526Y-69462328D01*
X53285275Y-69504291D01*
X53355940Y-69551943D01*
X53427884Y-69600191D01*
X53492726Y-69642151D01*
X53546265Y-69675227D01*
X53584303Y-69696821D01*
X53602467Y-69704343D01*
X53619192Y-69694457D01*
X53652820Y-69666826D01*
X53699990Y-69624495D01*
X53757342Y-69570505D01*
X53821516Y-69507899D01*
X53842503Y-69486983D01*
X54059501Y-69269623D01*
X53894332Y-69027220D01*
X53844136Y-68952781D01*
X53800081Y-68885972D01*
X53764638Y-68830665D01*
X53740281Y-68790729D01*
X53729478Y-68770036D01*
X53729162Y-68768563D01*
X53734857Y-68749058D01*
X53750174Y-68709822D01*
X53772463Y-68657430D01*
X53788107Y-68622355D01*
X53817359Y-68555201D01*
X53844906Y-68487358D01*
X53866263Y-68430034D01*
X53872065Y-68412572D01*
X53888548Y-68365938D01*
X53904660Y-68329905D01*
X53913510Y-68316287D01*
X53933040Y-68307952D01*
X53975666Y-68296137D01*
X54035855Y-68282181D01*
X54108078Y-68267422D01*
X54140400Y-68261355D01*
X54222478Y-68246273D01*
X54301205Y-68231669D01*
X54368891Y-68218980D01*
X54417840Y-68209642D01*
X54427057Y-68207839D01*
X54503257Y-68192799D01*
X54503257Y-67875492D01*
X54503086Y-67771154D01*
X54502384Y-67692213D01*
X54500866Y-67635038D01*
X54498251Y-67595999D01*
X54494254Y-67571465D01*
X54488591Y-67557805D01*
X54480980Y-67551389D01*
X54477857Y-67550199D01*
X54459022Y-67545980D01*
X54417412Y-67537562D01*
X54358370Y-67525961D01*
X54287243Y-67512195D01*
X54209375Y-67497280D01*
X54130113Y-67482232D01*
X54054802Y-67468069D01*
X53988787Y-67455806D01*
X53937413Y-67446461D01*
X53906025Y-67441050D01*
X53899041Y-67440114D01*
X53892715Y-67427596D01*
X53878710Y-67394246D01*
X53859645Y-67346377D01*
X53852366Y-67327629D01*
X53823004Y-67255195D01*
X53788429Y-67175170D01*
X53757463Y-67107728D01*
X53734677Y-67056159D01*
X53719518Y-67013785D01*
X53714458Y-66987834D01*
X53715264Y-66984356D01*
X53725959Y-66967936D01*
X53750380Y-66931417D01*
X53785905Y-66878687D01*
X53829913Y-66813635D01*
X53879783Y-66740151D01*
X53889644Y-66725645D01*
X53947508Y-66639704D01*
X53990044Y-66574261D01*
X54018946Y-66526304D01*
X54035910Y-66492820D01*
X54042633Y-66470795D01*
X54040810Y-66457217D01*
X54040764Y-66457131D01*
X54026414Y-66439297D01*
X53994677Y-66404817D01*
X53948990Y-66357268D01*
X53892796Y-66300222D01*
X53829532Y-66237255D01*
X53822398Y-66230227D01*
X53742670Y-66153020D01*
X53681143Y-66096330D01*
X53636579Y-66059110D01*
X53607743Y-66040315D01*
X53595042Y-66037889D01*
X53576506Y-66048471D01*
X53538039Y-66072916D01*
X53483614Y-66108612D01*
X53417202Y-66152947D01*
X53342775Y-66203311D01*
X53325399Y-66215160D01*
X53078703Y-66383626D01*
X52967294Y-66333062D01*
X52899543Y-66303595D01*
X52826817Y-66273959D01*
X52764297Y-66250330D01*
X52761543Y-66249358D01*
X52712640Y-66231457D01*
X52674943Y-66216320D01*
X52656575Y-66207210D01*
X52656544Y-66207184D01*
X52650715Y-66190717D01*
X52640808Y-66150219D01*
X52627805Y-66090242D01*
X52612691Y-66015340D01*
X52596448Y-65930064D01*
X52595119Y-65922875D01*
X52578825Y-65835014D01*
X52563867Y-65755260D01*
X52551209Y-65688681D01*
X52541814Y-65640347D01*
X52536646Y-65615325D01*
X52536556Y-65614943D01*
X52533411Y-65604299D01*
X52527296Y-65596262D01*
X52514547Y-65590467D01*
X52491500Y-65586547D01*
X52454491Y-65584135D01*
X52399856Y-65582865D01*
X52323933Y-65582371D01*
X52223056Y-65582286D01*
X52210000Y-65582286D01*
X52106090Y-65582348D01*
D13*
G04 #@! TO.C,JP3*
X100900000Y-68600000D02*
X102900000Y-68600000D01*
X100900000Y-65800000D02*
X100900000Y-68600000D01*
X102900000Y-65800000D02*
X100900000Y-65800000D01*
X102900000Y-68600000D02*
X102900000Y-65800000D01*
X44038544Y-21620410D02*
X42038544Y-21620410D01*
X44038544Y-24420410D02*
X44038544Y-21620410D01*
X42038544Y-24420410D02*
X44038544Y-24420410D01*
X42038544Y-21620410D02*
X42038544Y-24420410D01*
D12*
G04 #@! TO.C,REF\002A\002A*
G36*
X92393910Y-23647652D02*
X92472454Y-23647222D01*
X92529298Y-23646058D01*
X92568105Y-23643793D01*
X92592538Y-23640060D01*
X92606262Y-23634494D01*
X92612940Y-23626727D01*
X92616236Y-23616395D01*
X92616556Y-23615057D01*
X92621562Y-23590921D01*
X92630829Y-23543299D01*
X92643392Y-23477259D01*
X92658287Y-23397872D01*
X92674551Y-23310204D01*
X92675119Y-23307125D01*
X92691410Y-23221211D01*
X92706652Y-23145304D01*
X92719861Y-23083955D01*
X92730054Y-23041718D01*
X92736248Y-23023145D01*
X92736543Y-23022816D01*
X92754788Y-23013747D01*
X92792405Y-22998633D01*
X92841271Y-22980738D01*
X92841543Y-22980642D01*
X92903093Y-22957507D01*
X92975657Y-22928035D01*
X93044057Y-22898403D01*
X93047294Y-22896938D01*
X93158702Y-22846374D01*
X93405399Y-23014840D01*
X93481077Y-23066197D01*
X93549631Y-23112111D01*
X93607088Y-23149970D01*
X93649476Y-23177163D01*
X93672825Y-23191079D01*
X93675042Y-23192111D01*
X93692010Y-23187516D01*
X93723701Y-23165345D01*
X93771352Y-23124553D01*
X93836198Y-23064095D01*
X93902397Y-22999773D01*
X93966214Y-22936388D01*
X94023329Y-22878549D01*
X94070305Y-22829825D01*
X94103703Y-22793790D01*
X94120085Y-22774016D01*
X94120694Y-22772998D01*
X94122505Y-22759428D01*
X94115683Y-22737267D01*
X94098540Y-22703522D01*
X94069393Y-22655200D01*
X94026555Y-22589308D01*
X93969448Y-22504483D01*
X93918766Y-22429823D01*
X93873461Y-22362860D01*
X93836150Y-22307484D01*
X93809452Y-22267580D01*
X93795985Y-22247038D01*
X93795137Y-22245644D01*
X93796781Y-22225962D01*
X93809245Y-22187707D01*
X93830048Y-22138111D01*
X93837462Y-22122272D01*
X93869814Y-22051710D01*
X93904328Y-21971647D01*
X93932365Y-21902371D01*
X93952568Y-21850955D01*
X93968615Y-21811881D01*
X93977888Y-21791459D01*
X93979041Y-21789886D01*
X93996096Y-21787279D01*
X94036298Y-21780137D01*
X94094302Y-21769477D01*
X94164763Y-21756315D01*
X94242335Y-21741667D01*
X94321672Y-21726551D01*
X94397431Y-21711982D01*
X94464264Y-21698978D01*
X94516828Y-21688555D01*
X94549776Y-21681730D01*
X94557857Y-21679801D01*
X94566205Y-21675038D01*
X94572506Y-21664282D01*
X94577045Y-21643902D01*
X94580104Y-21610266D01*
X94581967Y-21559745D01*
X94582918Y-21488708D01*
X94583240Y-21393524D01*
X94583257Y-21354508D01*
X94583257Y-21037201D01*
X94507057Y-21022161D01*
X94464663Y-21014005D01*
X94401400Y-21002101D01*
X94324962Y-20987884D01*
X94243043Y-20972790D01*
X94220400Y-20968645D01*
X94144806Y-20953947D01*
X94078953Y-20939495D01*
X94028366Y-20926625D01*
X93998574Y-20916678D01*
X93993612Y-20913713D01*
X93981426Y-20892717D01*
X93963953Y-20852033D01*
X93944577Y-20799678D01*
X93940734Y-20788400D01*
X93915339Y-20718477D01*
X93883817Y-20639582D01*
X93852969Y-20568734D01*
X93852817Y-20568405D01*
X93801447Y-20457267D01*
X93970399Y-20208747D01*
X94139352Y-19960228D01*
X93922429Y-19742942D01*
X93856819Y-19678274D01*
X93796979Y-19621267D01*
X93746267Y-19574967D01*
X93708046Y-19542416D01*
X93685675Y-19526657D01*
X93682466Y-19525657D01*
X93663626Y-19533531D01*
X93625180Y-19555422D01*
X93571330Y-19588733D01*
X93506276Y-19630869D01*
X93435940Y-19678057D01*
X93364555Y-19726190D01*
X93300908Y-19768072D01*
X93249041Y-19801129D01*
X93212995Y-19822782D01*
X93196867Y-19830457D01*
X93177189Y-19823963D01*
X93139875Y-19806850D01*
X93092621Y-19782674D01*
X93087612Y-19779987D01*
X93023977Y-19748073D01*
X92980341Y-19732421D01*
X92953202Y-19732255D01*
X92939057Y-19746796D01*
X92938975Y-19747000D01*
X92931905Y-19764221D01*
X92915042Y-19805101D01*
X92889695Y-19866475D01*
X92857171Y-19945181D01*
X92818778Y-20038053D01*
X92775822Y-20141928D01*
X92734222Y-20242498D01*
X92688504Y-20353484D01*
X92646526Y-20456297D01*
X92609548Y-20547785D01*
X92578827Y-20624799D01*
X92555622Y-20684185D01*
X92541190Y-20722791D01*
X92536743Y-20737200D01*
X92547896Y-20753728D01*
X92577069Y-20780070D01*
X92615971Y-20809113D01*
X92726757Y-20900961D01*
X92813351Y-21006241D01*
X92874716Y-21122734D01*
X92909815Y-21248224D01*
X92917608Y-21380493D01*
X92911943Y-21441543D01*
X92881078Y-21568205D01*
X92827920Y-21680059D01*
X92755767Y-21775999D01*
X92667917Y-21854924D01*
X92567665Y-21915730D01*
X92458310Y-21957313D01*
X92343147Y-21978572D01*
X92225475Y-21978401D01*
X92108590Y-21955699D01*
X91995789Y-21909362D01*
X91890369Y-21838287D01*
X91846368Y-21798089D01*
X91761979Y-21694871D01*
X91703222Y-21582075D01*
X91669704Y-21462990D01*
X91661035Y-21340905D01*
X91676823Y-21219107D01*
X91716678Y-21100884D01*
X91780207Y-20989525D01*
X91867021Y-20888316D01*
X91964029Y-20809113D01*
X92004437Y-20778838D01*
X92032982Y-20752781D01*
X92043257Y-20737175D01*
X92037877Y-20720157D01*
X92022575Y-20679500D01*
X91998612Y-20618358D01*
X91967244Y-20539881D01*
X91929732Y-20447220D01*
X91887333Y-20343528D01*
X91845663Y-20242474D01*
X91799690Y-20131393D01*
X91757107Y-20028459D01*
X91719221Y-19936835D01*
X91687340Y-19859684D01*
X91662771Y-19800169D01*
X91646820Y-19761456D01*
X91640910Y-19747000D01*
X91626948Y-19732315D01*
X91599940Y-19732358D01*
X91556413Y-19747901D01*
X91492890Y-19779716D01*
X91492388Y-19779987D01*
X91444560Y-19804677D01*
X91405897Y-19822662D01*
X91384095Y-19830386D01*
X91383133Y-19830457D01*
X91366721Y-19822622D01*
X91330487Y-19800835D01*
X91278474Y-19767672D01*
X91214725Y-19725709D01*
X91144060Y-19678057D01*
X91072116Y-19629809D01*
X91007274Y-19587849D01*
X90953735Y-19554773D01*
X90915697Y-19533179D01*
X90897533Y-19525657D01*
X90880808Y-19535543D01*
X90847180Y-19563174D01*
X90800010Y-19605505D01*
X90742658Y-19659495D01*
X90678484Y-19722101D01*
X90657497Y-19743017D01*
X90440499Y-19960377D01*
X90605668Y-20202780D01*
X90655864Y-20277219D01*
X90699919Y-20344028D01*
X90735362Y-20399335D01*
X90759719Y-20439271D01*
X90770522Y-20459964D01*
X90770838Y-20461437D01*
X90765143Y-20480942D01*
X90749826Y-20520178D01*
X90727537Y-20572570D01*
X90711893Y-20607645D01*
X90682641Y-20674799D01*
X90655094Y-20742642D01*
X90633737Y-20799966D01*
X90627935Y-20817428D01*
X90611452Y-20864062D01*
X90595340Y-20900095D01*
X90586490Y-20913713D01*
X90566960Y-20922048D01*
X90524334Y-20933863D01*
X90464145Y-20947819D01*
X90391922Y-20962578D01*
X90359600Y-20968645D01*
X90277522Y-20983727D01*
X90198795Y-20998331D01*
X90131109Y-21011020D01*
X90082160Y-21020358D01*
X90072943Y-21022161D01*
X89996743Y-21037201D01*
X89996743Y-21354508D01*
X89996914Y-21458846D01*
X89997616Y-21537787D01*
X89999134Y-21594962D01*
X90001749Y-21634001D01*
X90005746Y-21658535D01*
X90011409Y-21672195D01*
X90019020Y-21678611D01*
X90022143Y-21679801D01*
X90040978Y-21684020D01*
X90082588Y-21692438D01*
X90141630Y-21704039D01*
X90212757Y-21717805D01*
X90290625Y-21732720D01*
X90369887Y-21747768D01*
X90445198Y-21761931D01*
X90511213Y-21774194D01*
X90562587Y-21783539D01*
X90593975Y-21788950D01*
X90600959Y-21789886D01*
X90607285Y-21802404D01*
X90621290Y-21835754D01*
X90640355Y-21883623D01*
X90647634Y-21902371D01*
X90676996Y-21974805D01*
X90711571Y-22054830D01*
X90742537Y-22122272D01*
X90765323Y-22173841D01*
X90780482Y-22216215D01*
X90785542Y-22242166D01*
X90784736Y-22245644D01*
X90774041Y-22262064D01*
X90749620Y-22298583D01*
X90714095Y-22351313D01*
X90670087Y-22416365D01*
X90620217Y-22489849D01*
X90610356Y-22504355D01*
X90552492Y-22590296D01*
X90509956Y-22655739D01*
X90481054Y-22703696D01*
X90464090Y-22737180D01*
X90457367Y-22759205D01*
X90459190Y-22772783D01*
X90459236Y-22772869D01*
X90473586Y-22790703D01*
X90505323Y-22825183D01*
X90551010Y-22872732D01*
X90607204Y-22929778D01*
X90670468Y-22992745D01*
X90677602Y-22999773D01*
X90757330Y-23076980D01*
X90818857Y-23133670D01*
X90863421Y-23170890D01*
X90892257Y-23189685D01*
X90904958Y-23192111D01*
X90923494Y-23181529D01*
X90961961Y-23157084D01*
X91016386Y-23121388D01*
X91082798Y-23077053D01*
X91157225Y-23026689D01*
X91174601Y-23014840D01*
X91421297Y-22846374D01*
X91532706Y-22896938D01*
X91600457Y-22926405D01*
X91673183Y-22956041D01*
X91735703Y-22979670D01*
X91738457Y-22980642D01*
X91787360Y-22998543D01*
X91825057Y-23013680D01*
X91843425Y-23022790D01*
X91843456Y-23022816D01*
X91849285Y-23039283D01*
X91859192Y-23079781D01*
X91872195Y-23139758D01*
X91887309Y-23214660D01*
X91903552Y-23299936D01*
X91904881Y-23307125D01*
X91921175Y-23394986D01*
X91936133Y-23474740D01*
X91948791Y-23541319D01*
X91958186Y-23589653D01*
X91963354Y-23614675D01*
X91963444Y-23615057D01*
X91966589Y-23625701D01*
X91972704Y-23633738D01*
X91985453Y-23639533D01*
X92008500Y-23643453D01*
X92045509Y-23645865D01*
X92100144Y-23647135D01*
X92176067Y-23647629D01*
X92276944Y-23647714D01*
X92290000Y-23647714D01*
X92393910Y-23647652D01*
X92393910Y-23647652D01*
G37*
X92393910Y-23647652D02*
X92472454Y-23647222D01*
X92529298Y-23646058D01*
X92568105Y-23643793D01*
X92592538Y-23640060D01*
X92606262Y-23634494D01*
X92612940Y-23626727D01*
X92616236Y-23616395D01*
X92616556Y-23615057D01*
X92621562Y-23590921D01*
X92630829Y-23543299D01*
X92643392Y-23477259D01*
X92658287Y-23397872D01*
X92674551Y-23310204D01*
X92675119Y-23307125D01*
X92691410Y-23221211D01*
X92706652Y-23145304D01*
X92719861Y-23083955D01*
X92730054Y-23041718D01*
X92736248Y-23023145D01*
X92736543Y-23022816D01*
X92754788Y-23013747D01*
X92792405Y-22998633D01*
X92841271Y-22980738D01*
X92841543Y-22980642D01*
X92903093Y-22957507D01*
X92975657Y-22928035D01*
X93044057Y-22898403D01*
X93047294Y-22896938D01*
X93158702Y-22846374D01*
X93405399Y-23014840D01*
X93481077Y-23066197D01*
X93549631Y-23112111D01*
X93607088Y-23149970D01*
X93649476Y-23177163D01*
X93672825Y-23191079D01*
X93675042Y-23192111D01*
X93692010Y-23187516D01*
X93723701Y-23165345D01*
X93771352Y-23124553D01*
X93836198Y-23064095D01*
X93902397Y-22999773D01*
X93966214Y-22936388D01*
X94023329Y-22878549D01*
X94070305Y-22829825D01*
X94103703Y-22793790D01*
X94120085Y-22774016D01*
X94120694Y-22772998D01*
X94122505Y-22759428D01*
X94115683Y-22737267D01*
X94098540Y-22703522D01*
X94069393Y-22655200D01*
X94026555Y-22589308D01*
X93969448Y-22504483D01*
X93918766Y-22429823D01*
X93873461Y-22362860D01*
X93836150Y-22307484D01*
X93809452Y-22267580D01*
X93795985Y-22247038D01*
X93795137Y-22245644D01*
X93796781Y-22225962D01*
X93809245Y-22187707D01*
X93830048Y-22138111D01*
X93837462Y-22122272D01*
X93869814Y-22051710D01*
X93904328Y-21971647D01*
X93932365Y-21902371D01*
X93952568Y-21850955D01*
X93968615Y-21811881D01*
X93977888Y-21791459D01*
X93979041Y-21789886D01*
X93996096Y-21787279D01*
X94036298Y-21780137D01*
X94094302Y-21769477D01*
X94164763Y-21756315D01*
X94242335Y-21741667D01*
X94321672Y-21726551D01*
X94397431Y-21711982D01*
X94464264Y-21698978D01*
X94516828Y-21688555D01*
X94549776Y-21681730D01*
X94557857Y-21679801D01*
X94566205Y-21675038D01*
X94572506Y-21664282D01*
X94577045Y-21643902D01*
X94580104Y-21610266D01*
X94581967Y-21559745D01*
X94582918Y-21488708D01*
X94583240Y-21393524D01*
X94583257Y-21354508D01*
X94583257Y-21037201D01*
X94507057Y-21022161D01*
X94464663Y-21014005D01*
X94401400Y-21002101D01*
X94324962Y-20987884D01*
X94243043Y-20972790D01*
X94220400Y-20968645D01*
X94144806Y-20953947D01*
X94078953Y-20939495D01*
X94028366Y-20926625D01*
X93998574Y-20916678D01*
X93993612Y-20913713D01*
X93981426Y-20892717D01*
X93963953Y-20852033D01*
X93944577Y-20799678D01*
X93940734Y-20788400D01*
X93915339Y-20718477D01*
X93883817Y-20639582D01*
X93852969Y-20568734D01*
X93852817Y-20568405D01*
X93801447Y-20457267D01*
X93970399Y-20208747D01*
X94139352Y-19960228D01*
X93922429Y-19742942D01*
X93856819Y-19678274D01*
X93796979Y-19621267D01*
X93746267Y-19574967D01*
X93708046Y-19542416D01*
X93685675Y-19526657D01*
X93682466Y-19525657D01*
X93663626Y-19533531D01*
X93625180Y-19555422D01*
X93571330Y-19588733D01*
X93506276Y-19630869D01*
X93435940Y-19678057D01*
X93364555Y-19726190D01*
X93300908Y-19768072D01*
X93249041Y-19801129D01*
X93212995Y-19822782D01*
X93196867Y-19830457D01*
X93177189Y-19823963D01*
X93139875Y-19806850D01*
X93092621Y-19782674D01*
X93087612Y-19779987D01*
X93023977Y-19748073D01*
X92980341Y-19732421D01*
X92953202Y-19732255D01*
X92939057Y-19746796D01*
X92938975Y-19747000D01*
X92931905Y-19764221D01*
X92915042Y-19805101D01*
X92889695Y-19866475D01*
X92857171Y-19945181D01*
X92818778Y-20038053D01*
X92775822Y-20141928D01*
X92734222Y-20242498D01*
X92688504Y-20353484D01*
X92646526Y-20456297D01*
X92609548Y-20547785D01*
X92578827Y-20624799D01*
X92555622Y-20684185D01*
X92541190Y-20722791D01*
X92536743Y-20737200D01*
X92547896Y-20753728D01*
X92577069Y-20780070D01*
X92615971Y-20809113D01*
X92726757Y-20900961D01*
X92813351Y-21006241D01*
X92874716Y-21122734D01*
X92909815Y-21248224D01*
X92917608Y-21380493D01*
X92911943Y-21441543D01*
X92881078Y-21568205D01*
X92827920Y-21680059D01*
X92755767Y-21775999D01*
X92667917Y-21854924D01*
X92567665Y-21915730D01*
X92458310Y-21957313D01*
X92343147Y-21978572D01*
X92225475Y-21978401D01*
X92108590Y-21955699D01*
X91995789Y-21909362D01*
X91890369Y-21838287D01*
X91846368Y-21798089D01*
X91761979Y-21694871D01*
X91703222Y-21582075D01*
X91669704Y-21462990D01*
X91661035Y-21340905D01*
X91676823Y-21219107D01*
X91716678Y-21100884D01*
X91780207Y-20989525D01*
X91867021Y-20888316D01*
X91964029Y-20809113D01*
X92004437Y-20778838D01*
X92032982Y-20752781D01*
X92043257Y-20737175D01*
X92037877Y-20720157D01*
X92022575Y-20679500D01*
X91998612Y-20618358D01*
X91967244Y-20539881D01*
X91929732Y-20447220D01*
X91887333Y-20343528D01*
X91845663Y-20242474D01*
X91799690Y-20131393D01*
X91757107Y-20028459D01*
X91719221Y-19936835D01*
X91687340Y-19859684D01*
X91662771Y-19800169D01*
X91646820Y-19761456D01*
X91640910Y-19747000D01*
X91626948Y-19732315D01*
X91599940Y-19732358D01*
X91556413Y-19747901D01*
X91492890Y-19779716D01*
X91492388Y-19779987D01*
X91444560Y-19804677D01*
X91405897Y-19822662D01*
X91384095Y-19830386D01*
X91383133Y-19830457D01*
X91366721Y-19822622D01*
X91330487Y-19800835D01*
X91278474Y-19767672D01*
X91214725Y-19725709D01*
X91144060Y-19678057D01*
X91072116Y-19629809D01*
X91007274Y-19587849D01*
X90953735Y-19554773D01*
X90915697Y-19533179D01*
X90897533Y-19525657D01*
X90880808Y-19535543D01*
X90847180Y-19563174D01*
X90800010Y-19605505D01*
X90742658Y-19659495D01*
X90678484Y-19722101D01*
X90657497Y-19743017D01*
X90440499Y-19960377D01*
X90605668Y-20202780D01*
X90655864Y-20277219D01*
X90699919Y-20344028D01*
X90735362Y-20399335D01*
X90759719Y-20439271D01*
X90770522Y-20459964D01*
X90770838Y-20461437D01*
X90765143Y-20480942D01*
X90749826Y-20520178D01*
X90727537Y-20572570D01*
X90711893Y-20607645D01*
X90682641Y-20674799D01*
X90655094Y-20742642D01*
X90633737Y-20799966D01*
X90627935Y-20817428D01*
X90611452Y-20864062D01*
X90595340Y-20900095D01*
X90586490Y-20913713D01*
X90566960Y-20922048D01*
X90524334Y-20933863D01*
X90464145Y-20947819D01*
X90391922Y-20962578D01*
X90359600Y-20968645D01*
X90277522Y-20983727D01*
X90198795Y-20998331D01*
X90131109Y-21011020D01*
X90082160Y-21020358D01*
X90072943Y-21022161D01*
X89996743Y-21037201D01*
X89996743Y-21354508D01*
X89996914Y-21458846D01*
X89997616Y-21537787D01*
X89999134Y-21594962D01*
X90001749Y-21634001D01*
X90005746Y-21658535D01*
X90011409Y-21672195D01*
X90019020Y-21678611D01*
X90022143Y-21679801D01*
X90040978Y-21684020D01*
X90082588Y-21692438D01*
X90141630Y-21704039D01*
X90212757Y-21717805D01*
X90290625Y-21732720D01*
X90369887Y-21747768D01*
X90445198Y-21761931D01*
X90511213Y-21774194D01*
X90562587Y-21783539D01*
X90593975Y-21788950D01*
X90600959Y-21789886D01*
X90607285Y-21802404D01*
X90621290Y-21835754D01*
X90640355Y-21883623D01*
X90647634Y-21902371D01*
X90676996Y-21974805D01*
X90711571Y-22054830D01*
X90742537Y-22122272D01*
X90765323Y-22173841D01*
X90780482Y-22216215D01*
X90785542Y-22242166D01*
X90784736Y-22245644D01*
X90774041Y-22262064D01*
X90749620Y-22298583D01*
X90714095Y-22351313D01*
X90670087Y-22416365D01*
X90620217Y-22489849D01*
X90610356Y-22504355D01*
X90552492Y-22590296D01*
X90509956Y-22655739D01*
X90481054Y-22703696D01*
X90464090Y-22737180D01*
X90457367Y-22759205D01*
X90459190Y-22772783D01*
X90459236Y-22772869D01*
X90473586Y-22790703D01*
X90505323Y-22825183D01*
X90551010Y-22872732D01*
X90607204Y-22929778D01*
X90670468Y-22992745D01*
X90677602Y-22999773D01*
X90757330Y-23076980D01*
X90818857Y-23133670D01*
X90863421Y-23170890D01*
X90892257Y-23189685D01*
X90904958Y-23192111D01*
X90923494Y-23181529D01*
X90961961Y-23157084D01*
X91016386Y-23121388D01*
X91082798Y-23077053D01*
X91157225Y-23026689D01*
X91174601Y-23014840D01*
X91421297Y-22846374D01*
X91532706Y-22896938D01*
X91600457Y-22926405D01*
X91673183Y-22956041D01*
X91735703Y-22979670D01*
X91738457Y-22980642D01*
X91787360Y-22998543D01*
X91825057Y-23013680D01*
X91843425Y-23022790D01*
X91843456Y-23022816D01*
X91849285Y-23039283D01*
X91859192Y-23079781D01*
X91872195Y-23139758D01*
X91887309Y-23214660D01*
X91903552Y-23299936D01*
X91904881Y-23307125D01*
X91921175Y-23394986D01*
X91936133Y-23474740D01*
X91948791Y-23541319D01*
X91958186Y-23589653D01*
X91963354Y-23614675D01*
X91963444Y-23615057D01*
X91966589Y-23625701D01*
X91972704Y-23633738D01*
X91985453Y-23639533D01*
X92008500Y-23643453D01*
X92045509Y-23645865D01*
X92100144Y-23647135D01*
X92176067Y-23647629D01*
X92276944Y-23647714D01*
X92290000Y-23647714D01*
X92393910Y-23647652D01*
G36*
X95443595Y-18923034D02*
X95501021Y-18885503D01*
X95528719Y-18851904D01*
X95550662Y-18790936D01*
X95552405Y-18742692D01*
X95548457Y-18678184D01*
X95399686Y-18613066D01*
X95327349Y-18579798D01*
X95280084Y-18553036D01*
X95255507Y-18529856D01*
X95251237Y-18507333D01*
X95264889Y-18482545D01*
X95279943Y-18466114D01*
X95323746Y-18439765D01*
X95371389Y-18437919D01*
X95415145Y-18458454D01*
X95447289Y-18499248D01*
X95453038Y-18513653D01*
X95480576Y-18558644D01*
X95512258Y-18577818D01*
X95555714Y-18594221D01*
X95555714Y-18532034D01*
X95551872Y-18489717D01*
X95536823Y-18454031D01*
X95505280Y-18413057D01*
X95500592Y-18407733D01*
X95465506Y-18371280D01*
X95435347Y-18351717D01*
X95397615Y-18342717D01*
X95366335Y-18339770D01*
X95310385Y-18339035D01*
X95270555Y-18348340D01*
X95245708Y-18362154D01*
X95206656Y-18392533D01*
X95179625Y-18425387D01*
X95162517Y-18466706D01*
X95153238Y-18522479D01*
X95149693Y-18598695D01*
X95149410Y-18637378D01*
X95150372Y-18683753D01*
X95238007Y-18683753D01*
X95239023Y-18658874D01*
X95241556Y-18654800D01*
X95258274Y-18660335D01*
X95294249Y-18674983D01*
X95342331Y-18695810D01*
X95352386Y-18700286D01*
X95413152Y-18731186D01*
X95446632Y-18758343D01*
X95453990Y-18783780D01*
X95436391Y-18809519D01*
X95421856Y-18820891D01*
X95369410Y-18843636D01*
X95320322Y-18839878D01*
X95279227Y-18812116D01*
X95250758Y-18762848D01*
X95241631Y-18723743D01*
X95238007Y-18683753D01*
X95150372Y-18683753D01*
X95151285Y-18727751D01*
X95158196Y-18794616D01*
X95171884Y-18843305D01*
X95194096Y-18879151D01*
X95226574Y-18907487D01*
X95240733Y-18916645D01*
X95305053Y-18940493D01*
X95375473Y-18941994D01*
X95443595Y-18923034D01*
X95443595Y-18923034D01*
G37*
X95443595Y-18923034D02*
X95501021Y-18885503D01*
X95528719Y-18851904D01*
X95550662Y-18790936D01*
X95552405Y-18742692D01*
X95548457Y-18678184D01*
X95399686Y-18613066D01*
X95327349Y-18579798D01*
X95280084Y-18553036D01*
X95255507Y-18529856D01*
X95251237Y-18507333D01*
X95264889Y-18482545D01*
X95279943Y-18466114D01*
X95323746Y-18439765D01*
X95371389Y-18437919D01*
X95415145Y-18458454D01*
X95447289Y-18499248D01*
X95453038Y-18513653D01*
X95480576Y-18558644D01*
X95512258Y-18577818D01*
X95555714Y-18594221D01*
X95555714Y-18532034D01*
X95551872Y-18489717D01*
X95536823Y-18454031D01*
X95505280Y-18413057D01*
X95500592Y-18407733D01*
X95465506Y-18371280D01*
X95435347Y-18351717D01*
X95397615Y-18342717D01*
X95366335Y-18339770D01*
X95310385Y-18339035D01*
X95270555Y-18348340D01*
X95245708Y-18362154D01*
X95206656Y-18392533D01*
X95179625Y-18425387D01*
X95162517Y-18466706D01*
X95153238Y-18522479D01*
X95149693Y-18598695D01*
X95149410Y-18637378D01*
X95150372Y-18683753D01*
X95238007Y-18683753D01*
X95239023Y-18658874D01*
X95241556Y-18654800D01*
X95258274Y-18660335D01*
X95294249Y-18674983D01*
X95342331Y-18695810D01*
X95352386Y-18700286D01*
X95413152Y-18731186D01*
X95446632Y-18758343D01*
X95453990Y-18783780D01*
X95436391Y-18809519D01*
X95421856Y-18820891D01*
X95369410Y-18843636D01*
X95320322Y-18839878D01*
X95279227Y-18812116D01*
X95250758Y-18762848D01*
X95241631Y-18723743D01*
X95238007Y-18683753D01*
X95150372Y-18683753D01*
X95151285Y-18727751D01*
X95158196Y-18794616D01*
X95171884Y-18843305D01*
X95194096Y-18879151D01*
X95226574Y-18907487D01*
X95240733Y-18916645D01*
X95305053Y-18940493D01*
X95375473Y-18941994D01*
X95443595Y-18923034D01*
G36*
X94942600Y-18931248D02*
X94959948Y-18923666D01*
X95001356Y-18890872D01*
X95036765Y-18843453D01*
X95058664Y-18792849D01*
X95062229Y-18767902D01*
X95050279Y-18733073D01*
X95024067Y-18714643D01*
X94995964Y-18703484D01*
X94983095Y-18701428D01*
X94976829Y-18716351D01*
X94964456Y-18748825D01*
X94959028Y-18763498D01*
X94928590Y-18814256D01*
X94884520Y-18839573D01*
X94828010Y-18838794D01*
X94823825Y-18837797D01*
X94793655Y-18823493D01*
X94771476Y-18795607D01*
X94756327Y-18750713D01*
X94747250Y-18685385D01*
X94743286Y-18596196D01*
X94742914Y-18548739D01*
X94742730Y-18473929D01*
X94741522Y-18422931D01*
X94738309Y-18390529D01*
X94732109Y-18371505D01*
X94721940Y-18360644D01*
X94706819Y-18352728D01*
X94705946Y-18352330D01*
X94676828Y-18340019D01*
X94662403Y-18335486D01*
X94660186Y-18349191D01*
X94658289Y-18387075D01*
X94656847Y-18444285D01*
X94655998Y-18515973D01*
X94655829Y-18568435D01*
X94656692Y-18669953D01*
X94660070Y-18746968D01*
X94667142Y-18803977D01*
X94679088Y-18845474D01*
X94697090Y-18875957D01*
X94722327Y-18899920D01*
X94747247Y-18916645D01*
X94807171Y-18938903D01*
X94876911Y-18943924D01*
X94942600Y-18931248D01*
X94942600Y-18931248D01*
G37*
X94942600Y-18931248D02*
X94959948Y-18923666D01*
X95001356Y-18890872D01*
X95036765Y-18843453D01*
X95058664Y-18792849D01*
X95062229Y-18767902D01*
X95050279Y-18733073D01*
X95024067Y-18714643D01*
X94995964Y-18703484D01*
X94983095Y-18701428D01*
X94976829Y-18716351D01*
X94964456Y-18748825D01*
X94959028Y-18763498D01*
X94928590Y-18814256D01*
X94884520Y-18839573D01*
X94828010Y-18838794D01*
X94823825Y-18837797D01*
X94793655Y-18823493D01*
X94771476Y-18795607D01*
X94756327Y-18750713D01*
X94747250Y-18685385D01*
X94743286Y-18596196D01*
X94742914Y-18548739D01*
X94742730Y-18473929D01*
X94741522Y-18422931D01*
X94738309Y-18390529D01*
X94732109Y-18371505D01*
X94721940Y-18360644D01*
X94706819Y-18352728D01*
X94705946Y-18352330D01*
X94676828Y-18340019D01*
X94662403Y-18335486D01*
X94660186Y-18349191D01*
X94658289Y-18387075D01*
X94656847Y-18444285D01*
X94655998Y-18515973D01*
X94655829Y-18568435D01*
X94656692Y-18669953D01*
X94660070Y-18746968D01*
X94667142Y-18803977D01*
X94679088Y-18845474D01*
X94697090Y-18875957D01*
X94722327Y-18899920D01*
X94747247Y-18916645D01*
X94807171Y-18938903D01*
X94876911Y-18943924D01*
X94942600Y-18931248D01*
G36*
X94434876Y-18933665D02*
X94476667Y-18914656D01*
X94509469Y-18891622D01*
X94533503Y-18865867D01*
X94550097Y-18832642D01*
X94560577Y-18787200D01*
X94566271Y-18724793D01*
X94568507Y-18640673D01*
X94568743Y-18585279D01*
X94568743Y-18369174D01*
X94531774Y-18352330D01*
X94502656Y-18340019D01*
X94488231Y-18335486D01*
X94485472Y-18348975D01*
X94483282Y-18385347D01*
X94481942Y-18438458D01*
X94481657Y-18480628D01*
X94480434Y-18541553D01*
X94477136Y-18589885D01*
X94472321Y-18619482D01*
X94468496Y-18625771D01*
X94442783Y-18619348D01*
X94402418Y-18602875D01*
X94355679Y-18580542D01*
X94310845Y-18556543D01*
X94276193Y-18535070D01*
X94260002Y-18520315D01*
X94259938Y-18520155D01*
X94261330Y-18492848D01*
X94273818Y-18466781D01*
X94295743Y-18445608D01*
X94327743Y-18438526D01*
X94355092Y-18439351D01*
X94393826Y-18439958D01*
X94414158Y-18430884D01*
X94426369Y-18406908D01*
X94427909Y-18402387D01*
X94433203Y-18368194D01*
X94419047Y-18347432D01*
X94382148Y-18337538D01*
X94342289Y-18335708D01*
X94270562Y-18349273D01*
X94233432Y-18368645D01*
X94187576Y-18414155D01*
X94163256Y-18470017D01*
X94161073Y-18529043D01*
X94181629Y-18584047D01*
X94212549Y-18618514D01*
X94243420Y-18637811D01*
X94291942Y-18662241D01*
X94348485Y-18687015D01*
X94357910Y-18690801D01*
X94420019Y-18718209D01*
X94455822Y-18742366D01*
X94467337Y-18766381D01*
X94456580Y-18793365D01*
X94438114Y-18814457D01*
X94394469Y-18840428D01*
X94346446Y-18842376D01*
X94302406Y-18822363D01*
X94270709Y-18782449D01*
X94266549Y-18772152D01*
X94242327Y-18734276D01*
X94206965Y-18706158D01*
X94162343Y-18683083D01*
X94162343Y-18748515D01*
X94164969Y-18788494D01*
X94176230Y-18820003D01*
X94201199Y-18853622D01*
X94225169Y-18879516D01*
X94262441Y-18916183D01*
X94291401Y-18935879D01*
X94322505Y-18943780D01*
X94357713Y-18945086D01*
X94434876Y-18933665D01*
X94434876Y-18933665D01*
G37*
X94434876Y-18933665D02*
X94476667Y-18914656D01*
X94509469Y-18891622D01*
X94533503Y-18865867D01*
X94550097Y-18832642D01*
X94560577Y-18787200D01*
X94566271Y-18724793D01*
X94568507Y-18640673D01*
X94568743Y-18585279D01*
X94568743Y-18369174D01*
X94531774Y-18352330D01*
X94502656Y-18340019D01*
X94488231Y-18335486D01*
X94485472Y-18348975D01*
X94483282Y-18385347D01*
X94481942Y-18438458D01*
X94481657Y-18480628D01*
X94480434Y-18541553D01*
X94477136Y-18589885D01*
X94472321Y-18619482D01*
X94468496Y-18625771D01*
X94442783Y-18619348D01*
X94402418Y-18602875D01*
X94355679Y-18580542D01*
X94310845Y-18556543D01*
X94276193Y-18535070D01*
X94260002Y-18520315D01*
X94259938Y-18520155D01*
X94261330Y-18492848D01*
X94273818Y-18466781D01*
X94295743Y-18445608D01*
X94327743Y-18438526D01*
X94355092Y-18439351D01*
X94393826Y-18439958D01*
X94414158Y-18430884D01*
X94426369Y-18406908D01*
X94427909Y-18402387D01*
X94433203Y-18368194D01*
X94419047Y-18347432D01*
X94382148Y-18337538D01*
X94342289Y-18335708D01*
X94270562Y-18349273D01*
X94233432Y-18368645D01*
X94187576Y-18414155D01*
X94163256Y-18470017D01*
X94161073Y-18529043D01*
X94181629Y-18584047D01*
X94212549Y-18618514D01*
X94243420Y-18637811D01*
X94291942Y-18662241D01*
X94348485Y-18687015D01*
X94357910Y-18690801D01*
X94420019Y-18718209D01*
X94455822Y-18742366D01*
X94467337Y-18766381D01*
X94456580Y-18793365D01*
X94438114Y-18814457D01*
X94394469Y-18840428D01*
X94346446Y-18842376D01*
X94302406Y-18822363D01*
X94270709Y-18782449D01*
X94266549Y-18772152D01*
X94242327Y-18734276D01*
X94206965Y-18706158D01*
X94162343Y-18683083D01*
X94162343Y-18748515D01*
X94164969Y-18788494D01*
X94176230Y-18820003D01*
X94201199Y-18853622D01*
X94225169Y-18879516D01*
X94262441Y-18916183D01*
X94291401Y-18935879D01*
X94322505Y-18943780D01*
X94357713Y-18945086D01*
X94434876Y-18933665D01*
G36*
X94069833Y-18931337D02*
X94072048Y-18893150D01*
X94073784Y-18835114D01*
X94074899Y-18761820D01*
X94075257Y-18684945D01*
X94075257Y-18424804D01*
X94029326Y-18378873D01*
X93997675Y-18350571D01*
X93969890Y-18339107D01*
X93931915Y-18339832D01*
X93916840Y-18341679D01*
X93869726Y-18347052D01*
X93830756Y-18350131D01*
X93821257Y-18350415D01*
X93789233Y-18348555D01*
X93743432Y-18343886D01*
X93725674Y-18341679D01*
X93682057Y-18338265D01*
X93652745Y-18345680D01*
X93623680Y-18368573D01*
X93613188Y-18378873D01*
X93567257Y-18424804D01*
X93567257Y-18911398D01*
X93604226Y-18928242D01*
X93636059Y-18940718D01*
X93654683Y-18945086D01*
X93659458Y-18931282D01*
X93663921Y-18892714D01*
X93667775Y-18833644D01*
X93670722Y-18758337D01*
X93672143Y-18694714D01*
X93676114Y-18444343D01*
X93710759Y-18439444D01*
X93742268Y-18442869D01*
X93757708Y-18453959D01*
X93762023Y-18474692D01*
X93765708Y-18518855D01*
X93768469Y-18580854D01*
X93770012Y-18655091D01*
X93770235Y-18693294D01*
X93770457Y-18913217D01*
X93816166Y-18929151D01*
X93848518Y-18939985D01*
X93866115Y-18945038D01*
X93866623Y-18945086D01*
X93868388Y-18931352D01*
X93870329Y-18893270D01*
X93872282Y-18835518D01*
X93874084Y-18762773D01*
X93875343Y-18694714D01*
X93879314Y-18444343D01*
X93966400Y-18444343D01*
X93970396Y-18672760D01*
X93974392Y-18901178D01*
X94016847Y-18923132D01*
X94048192Y-18938207D01*
X94066744Y-18945049D01*
X94067279Y-18945086D01*
X94069833Y-18931337D01*
X94069833Y-18931337D01*
G37*
X94069833Y-18931337D02*
X94072048Y-18893150D01*
X94073784Y-18835114D01*
X94074899Y-18761820D01*
X94075257Y-18684945D01*
X94075257Y-18424804D01*
X94029326Y-18378873D01*
X93997675Y-18350571D01*
X93969890Y-18339107D01*
X93931915Y-18339832D01*
X93916840Y-18341679D01*
X93869726Y-18347052D01*
X93830756Y-18350131D01*
X93821257Y-18350415D01*
X93789233Y-18348555D01*
X93743432Y-18343886D01*
X93725674Y-18341679D01*
X93682057Y-18338265D01*
X93652745Y-18345680D01*
X93623680Y-18368573D01*
X93613188Y-18378873D01*
X93567257Y-18424804D01*
X93567257Y-18911398D01*
X93604226Y-18928242D01*
X93636059Y-18940718D01*
X93654683Y-18945086D01*
X93659458Y-18931282D01*
X93663921Y-18892714D01*
X93667775Y-18833644D01*
X93670722Y-18758337D01*
X93672143Y-18694714D01*
X93676114Y-18444343D01*
X93710759Y-18439444D01*
X93742268Y-18442869D01*
X93757708Y-18453959D01*
X93762023Y-18474692D01*
X93765708Y-18518855D01*
X93768469Y-18580854D01*
X93770012Y-18655091D01*
X93770235Y-18693294D01*
X93770457Y-18913217D01*
X93816166Y-18929151D01*
X93848518Y-18939985D01*
X93866115Y-18945038D01*
X93866623Y-18945086D01*
X93868388Y-18931352D01*
X93870329Y-18893270D01*
X93872282Y-18835518D01*
X93874084Y-18762773D01*
X93875343Y-18694714D01*
X93879314Y-18444343D01*
X93966400Y-18444343D01*
X93970396Y-18672760D01*
X93974392Y-18901178D01*
X94016847Y-18923132D01*
X94048192Y-18938207D01*
X94066744Y-18945049D01*
X94067279Y-18945086D01*
X94069833Y-18931337D01*
G36*
X93480117Y-18824642D02*
X93479933Y-18716163D01*
X93479219Y-18632713D01*
X93477675Y-18570296D01*
X93475001Y-18524915D01*
X93470894Y-18492571D01*
X93465055Y-18469267D01*
X93457182Y-18451005D01*
X93451221Y-18440582D01*
X93401855Y-18384055D01*
X93339264Y-18348623D01*
X93270013Y-18335910D01*
X93200668Y-18347537D01*
X93159375Y-18368432D01*
X93116025Y-18404578D01*
X93086481Y-18448724D01*
X93068655Y-18506538D01*
X93060463Y-18583687D01*
X93059302Y-18640286D01*
X93059458Y-18644353D01*
X93160857Y-18644353D01*
X93161476Y-18579450D01*
X93164314Y-18536486D01*
X93170840Y-18508378D01*
X93182523Y-18488047D01*
X93196483Y-18472712D01*
X93243365Y-18443110D01*
X93293701Y-18440581D01*
X93341276Y-18465295D01*
X93344979Y-18468644D01*
X93360783Y-18486065D01*
X93370693Y-18506791D01*
X93376058Y-18537638D01*
X93378228Y-18585423D01*
X93378571Y-18638252D01*
X93377827Y-18704619D01*
X93374748Y-18748894D01*
X93368061Y-18777991D01*
X93356496Y-18798827D01*
X93347013Y-18809893D01*
X93302960Y-18837802D01*
X93252224Y-18841157D01*
X93203796Y-18819841D01*
X93194450Y-18811927D01*
X93178540Y-18794353D01*
X93168610Y-18773413D01*
X93163278Y-18742218D01*
X93161163Y-18693878D01*
X93160857Y-18644353D01*
X93059458Y-18644353D01*
X93062810Y-18731432D01*
X93074726Y-18799914D01*
X93097135Y-18851400D01*
X93132124Y-18891557D01*
X93159375Y-18912139D01*
X93208907Y-18934375D01*
X93266316Y-18944696D01*
X93319682Y-18941933D01*
X93349543Y-18930788D01*
X93361261Y-18927617D01*
X93369037Y-18939443D01*
X93374465Y-18971134D01*
X93378571Y-19019407D01*
X93383067Y-19073171D01*
X93389313Y-19105518D01*
X93400676Y-19124015D01*
X93420528Y-19136230D01*
X93433000Y-19141638D01*
X93480171Y-19161399D01*
X93480117Y-18824642D01*
X93480117Y-18824642D01*
G37*
X93480117Y-18824642D02*
X93479933Y-18716163D01*
X93479219Y-18632713D01*
X93477675Y-18570296D01*
X93475001Y-18524915D01*
X93470894Y-18492571D01*
X93465055Y-18469267D01*
X93457182Y-18451005D01*
X93451221Y-18440582D01*
X93401855Y-18384055D01*
X93339264Y-18348623D01*
X93270013Y-18335910D01*
X93200668Y-18347537D01*
X93159375Y-18368432D01*
X93116025Y-18404578D01*
X93086481Y-18448724D01*
X93068655Y-18506538D01*
X93060463Y-18583687D01*
X93059302Y-18640286D01*
X93059458Y-18644353D01*
X93160857Y-18644353D01*
X93161476Y-18579450D01*
X93164314Y-18536486D01*
X93170840Y-18508378D01*
X93182523Y-18488047D01*
X93196483Y-18472712D01*
X93243365Y-18443110D01*
X93293701Y-18440581D01*
X93341276Y-18465295D01*
X93344979Y-18468644D01*
X93360783Y-18486065D01*
X93370693Y-18506791D01*
X93376058Y-18537638D01*
X93378228Y-18585423D01*
X93378571Y-18638252D01*
X93377827Y-18704619D01*
X93374748Y-18748894D01*
X93368061Y-18777991D01*
X93356496Y-18798827D01*
X93347013Y-18809893D01*
X93302960Y-18837802D01*
X93252224Y-18841157D01*
X93203796Y-18819841D01*
X93194450Y-18811927D01*
X93178540Y-18794353D01*
X93168610Y-18773413D01*
X93163278Y-18742218D01*
X93161163Y-18693878D01*
X93160857Y-18644353D01*
X93059458Y-18644353D01*
X93062810Y-18731432D01*
X93074726Y-18799914D01*
X93097135Y-18851400D01*
X93132124Y-18891557D01*
X93159375Y-18912139D01*
X93208907Y-18934375D01*
X93266316Y-18944696D01*
X93319682Y-18941933D01*
X93349543Y-18930788D01*
X93361261Y-18927617D01*
X93369037Y-18939443D01*
X93374465Y-18971134D01*
X93378571Y-19019407D01*
X93383067Y-19073171D01*
X93389313Y-19105518D01*
X93400676Y-19124015D01*
X93420528Y-19136230D01*
X93433000Y-19141638D01*
X93480171Y-19161399D01*
X93480117Y-18824642D01*
G36*
X92819926Y-18940245D02*
X92885858Y-18915916D01*
X92939273Y-18872883D01*
X92960164Y-18842591D01*
X92982939Y-18787006D01*
X92982466Y-18746814D01*
X92958562Y-18719783D01*
X92949717Y-18715187D01*
X92911530Y-18700856D01*
X92892028Y-18704528D01*
X92885422Y-18728593D01*
X92885086Y-18741886D01*
X92872992Y-18790790D01*
X92841471Y-18825001D01*
X92797659Y-18841524D01*
X92748695Y-18837366D01*
X92708894Y-18815773D01*
X92695450Y-18803456D01*
X92685921Y-18788513D01*
X92679485Y-18765925D01*
X92675317Y-18730672D01*
X92672597Y-18677734D01*
X92670502Y-18602093D01*
X92669960Y-18578143D01*
X92667981Y-18496210D01*
X92665731Y-18438545D01*
X92662357Y-18400392D01*
X92657006Y-18376996D01*
X92648824Y-18363602D01*
X92636959Y-18355455D01*
X92629362Y-18351856D01*
X92597102Y-18339548D01*
X92578111Y-18335486D01*
X92571836Y-18349052D01*
X92568006Y-18390066D01*
X92566600Y-18459001D01*
X92567598Y-18556331D01*
X92567908Y-18571343D01*
X92570101Y-18660141D01*
X92572693Y-18724981D01*
X92576382Y-18770933D01*
X92581864Y-18803065D01*
X92589835Y-18826447D01*
X92600993Y-18846148D01*
X92606830Y-18854590D01*
X92640296Y-18891943D01*
X92677727Y-18920997D01*
X92682309Y-18923533D01*
X92749426Y-18943557D01*
X92819926Y-18940245D01*
X92819926Y-18940245D01*
G37*
X92819926Y-18940245D02*
X92885858Y-18915916D01*
X92939273Y-18872883D01*
X92960164Y-18842591D01*
X92982939Y-18787006D01*
X92982466Y-18746814D01*
X92958562Y-18719783D01*
X92949717Y-18715187D01*
X92911530Y-18700856D01*
X92892028Y-18704528D01*
X92885422Y-18728593D01*
X92885086Y-18741886D01*
X92872992Y-18790790D01*
X92841471Y-18825001D01*
X92797659Y-18841524D01*
X92748695Y-18837366D01*
X92708894Y-18815773D01*
X92695450Y-18803456D01*
X92685921Y-18788513D01*
X92679485Y-18765925D01*
X92675317Y-18730672D01*
X92672597Y-18677734D01*
X92670502Y-18602093D01*
X92669960Y-18578143D01*
X92667981Y-18496210D01*
X92665731Y-18438545D01*
X92662357Y-18400392D01*
X92657006Y-18376996D01*
X92648824Y-18363602D01*
X92636959Y-18355455D01*
X92629362Y-18351856D01*
X92597102Y-18339548D01*
X92578111Y-18335486D01*
X92571836Y-18349052D01*
X92568006Y-18390066D01*
X92566600Y-18459001D01*
X92567598Y-18556331D01*
X92567908Y-18571343D01*
X92570101Y-18660141D01*
X92572693Y-18724981D01*
X92576382Y-18770933D01*
X92581864Y-18803065D01*
X92589835Y-18826447D01*
X92600993Y-18846148D01*
X92606830Y-18854590D01*
X92640296Y-18891943D01*
X92677727Y-18920997D01*
X92682309Y-18923533D01*
X92749426Y-18943557D01*
X92819926Y-18940245D01*
G36*
X92329744Y-18939032D02*
X92386616Y-18917913D01*
X92387267Y-18917507D01*
X92422440Y-18891620D01*
X92448407Y-18861367D01*
X92466670Y-18821942D01*
X92478732Y-18768538D01*
X92486096Y-18696349D01*
X92490264Y-18600568D01*
X92490629Y-18586922D01*
X92495876Y-18381158D01*
X92451716Y-18358322D01*
X92419763Y-18342890D01*
X92400470Y-18335577D01*
X92399578Y-18335486D01*
X92396239Y-18348978D01*
X92393587Y-18385374D01*
X92391956Y-18438548D01*
X92391600Y-18481607D01*
X92391592Y-18551359D01*
X92388403Y-18595163D01*
X92377288Y-18616056D01*
X92353501Y-18617075D01*
X92312296Y-18601259D01*
X92250086Y-18572185D01*
X92204341Y-18548037D01*
X92180813Y-18527087D01*
X92173896Y-18504253D01*
X92173886Y-18503123D01*
X92185299Y-18463788D01*
X92219092Y-18442538D01*
X92270809Y-18439461D01*
X92308061Y-18439994D01*
X92327703Y-18429265D01*
X92339952Y-18403495D01*
X92347002Y-18370663D01*
X92336842Y-18352034D01*
X92333017Y-18349368D01*
X92297001Y-18338660D01*
X92246566Y-18337144D01*
X92194626Y-18344241D01*
X92157822Y-18357212D01*
X92106938Y-18400415D01*
X92078014Y-18460554D01*
X92072286Y-18507538D01*
X92076657Y-18549918D01*
X92092475Y-18584512D01*
X92123797Y-18615237D01*
X92174678Y-18646010D01*
X92249176Y-18680748D01*
X92253714Y-18682712D01*
X92320821Y-18713713D01*
X92362232Y-18739138D01*
X92379981Y-18761986D01*
X92376107Y-18785255D01*
X92352643Y-18811944D01*
X92345627Y-18818086D01*
X92298630Y-18841900D01*
X92249933Y-18840897D01*
X92207522Y-18817549D01*
X92179384Y-18774325D01*
X92176769Y-18765840D01*
X92151308Y-18724692D01*
X92119001Y-18704872D01*
X92072286Y-18685230D01*
X92072286Y-18736050D01*
X92086496Y-18809918D01*
X92128675Y-18877673D01*
X92150624Y-18900339D01*
X92200517Y-18929431D01*
X92263967Y-18942600D01*
X92329744Y-18939032D01*
X92329744Y-18939032D01*
G37*
X92329744Y-18939032D02*
X92386616Y-18917913D01*
X92387267Y-18917507D01*
X92422440Y-18891620D01*
X92448407Y-18861367D01*
X92466670Y-18821942D01*
X92478732Y-18768538D01*
X92486096Y-18696349D01*
X92490264Y-18600568D01*
X92490629Y-18586922D01*
X92495876Y-18381158D01*
X92451716Y-18358322D01*
X92419763Y-18342890D01*
X92400470Y-18335577D01*
X92399578Y-18335486D01*
X92396239Y-18348978D01*
X92393587Y-18385374D01*
X92391956Y-18438548D01*
X92391600Y-18481607D01*
X92391592Y-18551359D01*
X92388403Y-18595163D01*
X92377288Y-18616056D01*
X92353501Y-18617075D01*
X92312296Y-18601259D01*
X92250086Y-18572185D01*
X92204341Y-18548037D01*
X92180813Y-18527087D01*
X92173896Y-18504253D01*
X92173886Y-18503123D01*
X92185299Y-18463788D01*
X92219092Y-18442538D01*
X92270809Y-18439461D01*
X92308061Y-18439994D01*
X92327703Y-18429265D01*
X92339952Y-18403495D01*
X92347002Y-18370663D01*
X92336842Y-18352034D01*
X92333017Y-18349368D01*
X92297001Y-18338660D01*
X92246566Y-18337144D01*
X92194626Y-18344241D01*
X92157822Y-18357212D01*
X92106938Y-18400415D01*
X92078014Y-18460554D01*
X92072286Y-18507538D01*
X92076657Y-18549918D01*
X92092475Y-18584512D01*
X92123797Y-18615237D01*
X92174678Y-18646010D01*
X92249176Y-18680748D01*
X92253714Y-18682712D01*
X92320821Y-18713713D01*
X92362232Y-18739138D01*
X92379981Y-18761986D01*
X92376107Y-18785255D01*
X92352643Y-18811944D01*
X92345627Y-18818086D01*
X92298630Y-18841900D01*
X92249933Y-18840897D01*
X92207522Y-18817549D01*
X92179384Y-18774325D01*
X92176769Y-18765840D01*
X92151308Y-18724692D01*
X92119001Y-18704872D01*
X92072286Y-18685230D01*
X92072286Y-18736050D01*
X92086496Y-18809918D01*
X92128675Y-18877673D01*
X92150624Y-18900339D01*
X92200517Y-18929431D01*
X92263967Y-18942600D01*
X92329744Y-18939032D01*
G36*
X91665886Y-19038711D02*
X91670139Y-18979387D01*
X91675025Y-18944428D01*
X91681795Y-18929180D01*
X91691702Y-18928985D01*
X91694914Y-18930805D01*
X91737644Y-18943985D01*
X91793227Y-18943215D01*
X91849737Y-18929667D01*
X91885082Y-18912139D01*
X91921321Y-18884139D01*
X91947813Y-18852451D01*
X91965999Y-18812187D01*
X91977322Y-18758457D01*
X91983222Y-18686374D01*
X91985143Y-18591049D01*
X91985177Y-18572763D01*
X91985200Y-18367354D01*
X91939491Y-18351420D01*
X91907027Y-18340580D01*
X91889215Y-18335532D01*
X91888691Y-18335486D01*
X91886937Y-18349172D01*
X91885444Y-18386924D01*
X91884326Y-18443776D01*
X91883697Y-18514766D01*
X91883600Y-18557927D01*
X91883398Y-18643027D01*
X91882358Y-18704019D01*
X91879831Y-18745823D01*
X91875164Y-18773358D01*
X91867707Y-18791544D01*
X91856811Y-18805302D01*
X91850007Y-18811927D01*
X91803272Y-18838625D01*
X91752272Y-18840625D01*
X91706001Y-18818045D01*
X91697444Y-18809893D01*
X91684893Y-18794564D01*
X91676188Y-18776382D01*
X91670631Y-18750091D01*
X91667526Y-18710438D01*
X91666176Y-18652168D01*
X91665886Y-18571827D01*
X91665886Y-18367354D01*
X91620177Y-18351420D01*
X91587713Y-18340580D01*
X91569901Y-18335532D01*
X91569377Y-18335486D01*
X91568037Y-18349377D01*
X91566828Y-18388561D01*
X91565801Y-18449300D01*
X91565002Y-18527859D01*
X91564481Y-18620502D01*
X91564286Y-18723491D01*
X91564286Y-19120658D01*
X91611457Y-19140556D01*
X91658629Y-19160453D01*
X91665886Y-19038711D01*
X91665886Y-19038711D01*
G37*
X91665886Y-19038711D02*
X91670139Y-18979387D01*
X91675025Y-18944428D01*
X91681795Y-18929180D01*
X91691702Y-18928985D01*
X91694914Y-18930805D01*
X91737644Y-18943985D01*
X91793227Y-18943215D01*
X91849737Y-18929667D01*
X91885082Y-18912139D01*
X91921321Y-18884139D01*
X91947813Y-18852451D01*
X91965999Y-18812187D01*
X91977322Y-18758457D01*
X91983222Y-18686374D01*
X91985143Y-18591049D01*
X91985177Y-18572763D01*
X91985200Y-18367354D01*
X91939491Y-18351420D01*
X91907027Y-18340580D01*
X91889215Y-18335532D01*
X91888691Y-18335486D01*
X91886937Y-18349172D01*
X91885444Y-18386924D01*
X91884326Y-18443776D01*
X91883697Y-18514766D01*
X91883600Y-18557927D01*
X91883398Y-18643027D01*
X91882358Y-18704019D01*
X91879831Y-18745823D01*
X91875164Y-18773358D01*
X91867707Y-18791544D01*
X91856811Y-18805302D01*
X91850007Y-18811927D01*
X91803272Y-18838625D01*
X91752272Y-18840625D01*
X91706001Y-18818045D01*
X91697444Y-18809893D01*
X91684893Y-18794564D01*
X91676188Y-18776382D01*
X91670631Y-18750091D01*
X91667526Y-18710438D01*
X91666176Y-18652168D01*
X91665886Y-18571827D01*
X91665886Y-18367354D01*
X91620177Y-18351420D01*
X91587713Y-18340580D01*
X91569901Y-18335532D01*
X91569377Y-18335486D01*
X91568037Y-18349377D01*
X91566828Y-18388561D01*
X91565801Y-18449300D01*
X91565002Y-18527859D01*
X91564481Y-18620502D01*
X91564286Y-18723491D01*
X91564286Y-19120658D01*
X91611457Y-19140556D01*
X91658629Y-19160453D01*
X91665886Y-19038711D01*
G36*
X90458303Y-18958761D02*
X90515527Y-18920265D01*
X90559749Y-18864665D01*
X90586167Y-18793914D01*
X90591510Y-18741838D01*
X90590903Y-18720107D01*
X90585822Y-18703469D01*
X90571855Y-18688563D01*
X90544589Y-18672027D01*
X90499612Y-18650502D01*
X90432511Y-18620626D01*
X90432171Y-18620476D01*
X90370407Y-18592187D01*
X90319759Y-18567067D01*
X90285404Y-18547821D01*
X90272518Y-18537152D01*
X90272514Y-18537066D01*
X90283872Y-18513834D01*
X90310431Y-18488226D01*
X90340923Y-18469779D01*
X90356370Y-18466114D01*
X90398515Y-18478788D01*
X90434808Y-18510529D01*
X90452517Y-18545428D01*
X90469552Y-18571155D01*
X90502922Y-18600454D01*
X90542149Y-18625765D01*
X90576756Y-18639529D01*
X90583993Y-18640286D01*
X90592139Y-18627840D01*
X90592630Y-18596028D01*
X90586643Y-18553134D01*
X90575357Y-18507442D01*
X90559950Y-18467239D01*
X90559171Y-18465678D01*
X90512804Y-18400938D01*
X90452711Y-18356903D01*
X90384465Y-18335289D01*
X90313638Y-18337815D01*
X90245804Y-18366196D01*
X90242788Y-18368192D01*
X90189427Y-18416552D01*
X90154340Y-18479648D01*
X90134922Y-18562613D01*
X90132316Y-18585922D01*
X90127701Y-18695945D01*
X90133233Y-18747252D01*
X90272514Y-18747252D01*
X90274324Y-18715247D01*
X90284222Y-18705907D01*
X90308898Y-18712895D01*
X90347795Y-18729413D01*
X90391275Y-18750119D01*
X90392356Y-18750667D01*
X90429209Y-18770051D01*
X90444000Y-18782987D01*
X90440353Y-18796549D01*
X90424995Y-18814368D01*
X90385923Y-18840155D01*
X90343846Y-18842050D01*
X90306103Y-18823283D01*
X90280034Y-18787085D01*
X90272514Y-18747252D01*
X90133233Y-18747252D01*
X90137194Y-18783973D01*
X90161550Y-18853788D01*
X90195456Y-18902698D01*
X90256653Y-18952122D01*
X90324063Y-18976641D01*
X90392880Y-18978203D01*
X90458303Y-18958761D01*
X90458303Y-18958761D01*
G37*
X90458303Y-18958761D02*
X90515527Y-18920265D01*
X90559749Y-18864665D01*
X90586167Y-18793914D01*
X90591510Y-18741838D01*
X90590903Y-18720107D01*
X90585822Y-18703469D01*
X90571855Y-18688563D01*
X90544589Y-18672027D01*
X90499612Y-18650502D01*
X90432511Y-18620626D01*
X90432171Y-18620476D01*
X90370407Y-18592187D01*
X90319759Y-18567067D01*
X90285404Y-18547821D01*
X90272518Y-18537152D01*
X90272514Y-18537066D01*
X90283872Y-18513834D01*
X90310431Y-18488226D01*
X90340923Y-18469779D01*
X90356370Y-18466114D01*
X90398515Y-18478788D01*
X90434808Y-18510529D01*
X90452517Y-18545428D01*
X90469552Y-18571155D01*
X90502922Y-18600454D01*
X90542149Y-18625765D01*
X90576756Y-18639529D01*
X90583993Y-18640286D01*
X90592139Y-18627840D01*
X90592630Y-18596028D01*
X90586643Y-18553134D01*
X90575357Y-18507442D01*
X90559950Y-18467239D01*
X90559171Y-18465678D01*
X90512804Y-18400938D01*
X90452711Y-18356903D01*
X90384465Y-18335289D01*
X90313638Y-18337815D01*
X90245804Y-18366196D01*
X90242788Y-18368192D01*
X90189427Y-18416552D01*
X90154340Y-18479648D01*
X90134922Y-18562613D01*
X90132316Y-18585922D01*
X90127701Y-18695945D01*
X90133233Y-18747252D01*
X90272514Y-18747252D01*
X90274324Y-18715247D01*
X90284222Y-18705907D01*
X90308898Y-18712895D01*
X90347795Y-18729413D01*
X90391275Y-18750119D01*
X90392356Y-18750667D01*
X90429209Y-18770051D01*
X90444000Y-18782987D01*
X90440353Y-18796549D01*
X90424995Y-18814368D01*
X90385923Y-18840155D01*
X90343846Y-18842050D01*
X90306103Y-18823283D01*
X90280034Y-18787085D01*
X90272514Y-18747252D01*
X90133233Y-18747252D01*
X90137194Y-18783973D01*
X90161550Y-18853788D01*
X90195456Y-18902698D01*
X90256653Y-18952122D01*
X90324063Y-18976641D01*
X90392880Y-18978203D01*
X90458303Y-18958761D01*
G36*
X89331115Y-18968038D02*
X89399145Y-18932267D01*
X89449351Y-18874699D01*
X89467185Y-18837688D01*
X89481063Y-18782118D01*
X89488167Y-18711904D01*
X89488840Y-18635273D01*
X89483427Y-18560448D01*
X89472270Y-18495658D01*
X89455714Y-18449127D01*
X89450626Y-18441113D01*
X89390355Y-18381293D01*
X89318769Y-18345465D01*
X89241092Y-18334980D01*
X89162548Y-18351190D01*
X89140689Y-18360908D01*
X89098122Y-18390857D01*
X89060763Y-18430567D01*
X89057232Y-18435603D01*
X89042881Y-18459876D01*
X89033394Y-18485822D01*
X89027790Y-18519978D01*
X89025086Y-18568881D01*
X89024299Y-18639065D01*
X89024286Y-18654800D01*
X89024322Y-18659808D01*
X89169429Y-18659808D01*
X89170273Y-18593570D01*
X89173596Y-18549614D01*
X89180583Y-18521221D01*
X89192416Y-18501675D01*
X89198457Y-18495143D01*
X89233186Y-18470320D01*
X89266903Y-18471452D01*
X89300995Y-18492984D01*
X89321329Y-18515971D01*
X89333371Y-18549522D01*
X89340134Y-18602431D01*
X89340598Y-18608601D01*
X89341752Y-18704487D01*
X89329688Y-18775701D01*
X89304570Y-18821806D01*
X89266560Y-18842365D01*
X89252992Y-18843486D01*
X89217364Y-18837848D01*
X89192994Y-18818314D01*
X89178093Y-18780958D01*
X89170875Y-18721850D01*
X89169429Y-18659808D01*
X89024322Y-18659808D01*
X89024826Y-18729587D01*
X89027096Y-18781841D01*
X89032068Y-18818051D01*
X89040713Y-18844701D01*
X89054005Y-18868278D01*
X89056943Y-18872662D01*
X89106313Y-18931751D01*
X89160109Y-18966053D01*
X89225602Y-18979669D01*
X89247842Y-18980335D01*
X89331115Y-18968038D01*
X89331115Y-18968038D01*
G37*
X89331115Y-18968038D02*
X89399145Y-18932267D01*
X89449351Y-18874699D01*
X89467185Y-18837688D01*
X89481063Y-18782118D01*
X89488167Y-18711904D01*
X89488840Y-18635273D01*
X89483427Y-18560448D01*
X89472270Y-18495658D01*
X89455714Y-18449127D01*
X89450626Y-18441113D01*
X89390355Y-18381293D01*
X89318769Y-18345465D01*
X89241092Y-18334980D01*
X89162548Y-18351190D01*
X89140689Y-18360908D01*
X89098122Y-18390857D01*
X89060763Y-18430567D01*
X89057232Y-18435603D01*
X89042881Y-18459876D01*
X89033394Y-18485822D01*
X89027790Y-18519978D01*
X89025086Y-18568881D01*
X89024299Y-18639065D01*
X89024286Y-18654800D01*
X89024322Y-18659808D01*
X89169429Y-18659808D01*
X89170273Y-18593570D01*
X89173596Y-18549614D01*
X89180583Y-18521221D01*
X89192416Y-18501675D01*
X89198457Y-18495143D01*
X89233186Y-18470320D01*
X89266903Y-18471452D01*
X89300995Y-18492984D01*
X89321329Y-18515971D01*
X89333371Y-18549522D01*
X89340134Y-18602431D01*
X89340598Y-18608601D01*
X89341752Y-18704487D01*
X89329688Y-18775701D01*
X89304570Y-18821806D01*
X89266560Y-18842365D01*
X89252992Y-18843486D01*
X89217364Y-18837848D01*
X89192994Y-18818314D01*
X89178093Y-18780958D01*
X89170875Y-18721850D01*
X89169429Y-18659808D01*
X89024322Y-18659808D01*
X89024826Y-18729587D01*
X89027096Y-18781841D01*
X89032068Y-18818051D01*
X89040713Y-18844701D01*
X89054005Y-18868278D01*
X89056943Y-18872662D01*
X89106313Y-18931751D01*
X89160109Y-18966053D01*
X89225602Y-18979669D01*
X89247842Y-18980335D01*
X89331115Y-18968038D01*
G36*
X91006093Y-18962220D02*
X91052672Y-18935277D01*
X91085057Y-18908534D01*
X91108742Y-18880516D01*
X91125059Y-18846252D01*
X91135339Y-18800773D01*
X91140914Y-18739108D01*
X91143116Y-18656289D01*
X91143371Y-18596754D01*
X91143371Y-18377609D01*
X91081686Y-18349956D01*
X91020000Y-18322303D01*
X91012743Y-18562330D01*
X91009744Y-18651972D01*
X91006598Y-18717038D01*
X91002701Y-18761974D01*
X90997447Y-18791230D01*
X90990231Y-18809252D01*
X90980450Y-18820489D01*
X90977312Y-18822921D01*
X90929761Y-18841917D01*
X90881697Y-18834400D01*
X90853086Y-18814457D01*
X90841447Y-18800325D01*
X90833391Y-18781780D01*
X90828271Y-18753666D01*
X90825441Y-18710827D01*
X90824256Y-18648105D01*
X90824057Y-18582739D01*
X90824018Y-18500732D01*
X90822614Y-18442684D01*
X90817914Y-18403535D01*
X90807987Y-18378220D01*
X90790903Y-18361677D01*
X90764732Y-18348844D01*
X90729775Y-18335509D01*
X90691596Y-18320993D01*
X90696141Y-18578611D01*
X90697971Y-18671481D01*
X90700112Y-18740111D01*
X90703181Y-18789289D01*
X90707794Y-18823802D01*
X90714568Y-18848438D01*
X90724119Y-18867984D01*
X90735634Y-18885230D01*
X90791190Y-18940320D01*
X90858980Y-18972178D01*
X90932713Y-18979809D01*
X91006093Y-18962220D01*
X91006093Y-18962220D01*
G37*
X91006093Y-18962220D02*
X91052672Y-18935277D01*
X91085057Y-18908534D01*
X91108742Y-18880516D01*
X91125059Y-18846252D01*
X91135339Y-18800773D01*
X91140914Y-18739108D01*
X91143116Y-18656289D01*
X91143371Y-18596754D01*
X91143371Y-18377609D01*
X91081686Y-18349956D01*
X91020000Y-18322303D01*
X91012743Y-18562330D01*
X91009744Y-18651972D01*
X91006598Y-18717038D01*
X91002701Y-18761974D01*
X90997447Y-18791230D01*
X90990231Y-18809252D01*
X90980450Y-18820489D01*
X90977312Y-18822921D01*
X90929761Y-18841917D01*
X90881697Y-18834400D01*
X90853086Y-18814457D01*
X90841447Y-18800325D01*
X90833391Y-18781780D01*
X90828271Y-18753666D01*
X90825441Y-18710827D01*
X90824256Y-18648105D01*
X90824057Y-18582739D01*
X90824018Y-18500732D01*
X90822614Y-18442684D01*
X90817914Y-18403535D01*
X90807987Y-18378220D01*
X90790903Y-18361677D01*
X90764732Y-18348844D01*
X90729775Y-18335509D01*
X90691596Y-18320993D01*
X90696141Y-18578611D01*
X90697971Y-18671481D01*
X90700112Y-18740111D01*
X90703181Y-18789289D01*
X90707794Y-18823802D01*
X90714568Y-18848438D01*
X90724119Y-18867984D01*
X90735634Y-18885230D01*
X90791190Y-18940320D01*
X90858980Y-18972178D01*
X90932713Y-18979809D01*
X91006093Y-18962220D01*
G36*
X89889744Y-18970082D02*
X89945201Y-18942432D01*
X89994148Y-18891520D01*
X90007629Y-18872662D01*
X90022314Y-18847985D01*
X90031842Y-18821184D01*
X90037293Y-18785413D01*
X90039747Y-18733831D01*
X90040286Y-18665733D01*
X90037852Y-18572412D01*
X90029394Y-18502343D01*
X90013174Y-18450069D01*
X89987454Y-18410131D01*
X89950497Y-18377071D01*
X89947782Y-18375114D01*
X89911360Y-18355092D01*
X89867502Y-18345185D01*
X89811724Y-18342743D01*
X89721048Y-18342743D01*
X89721010Y-18254717D01*
X89720166Y-18205692D01*
X89715024Y-18176935D01*
X89701587Y-18159689D01*
X89675858Y-18145192D01*
X89669679Y-18142231D01*
X89640764Y-18128352D01*
X89618376Y-18119586D01*
X89601729Y-18118829D01*
X89590036Y-18128977D01*
X89582510Y-18152927D01*
X89578366Y-18193574D01*
X89576815Y-18253814D01*
X89577071Y-18336545D01*
X89578349Y-18444661D01*
X89578748Y-18477000D01*
X89580185Y-18588476D01*
X89581472Y-18661397D01*
X89720971Y-18661397D01*
X89721755Y-18599501D01*
X89725240Y-18559003D01*
X89733124Y-18532292D01*
X89747105Y-18511756D01*
X89756597Y-18501740D01*
X89795404Y-18472433D01*
X89829763Y-18470048D01*
X89865216Y-18494250D01*
X89866114Y-18495143D01*
X89880539Y-18513847D01*
X89889313Y-18539268D01*
X89893739Y-18578416D01*
X89895118Y-18638303D01*
X89895143Y-18651570D01*
X89891812Y-18734099D01*
X89880969Y-18791309D01*
X89861340Y-18826234D01*
X89831650Y-18841906D01*
X89814491Y-18843486D01*
X89773766Y-18836074D01*
X89745832Y-18811670D01*
X89729017Y-18767020D01*
X89721650Y-18698870D01*
X89720971Y-18661397D01*
X89581472Y-18661397D01*
X89581708Y-18674755D01*
X89583677Y-18739667D01*
X89586450Y-18787042D01*
X89590388Y-18820710D01*
X89595849Y-18844502D01*
X89603192Y-18862247D01*
X89612777Y-18877776D01*
X89616887Y-18883619D01*
X89671405Y-18938815D01*
X89740336Y-18970110D01*
X89820072Y-18978835D01*
X89889744Y-18970082D01*
X89889744Y-18970082D01*
G37*
X89889744Y-18970082D02*
X89945201Y-18942432D01*
X89994148Y-18891520D01*
X90007629Y-18872662D01*
X90022314Y-18847985D01*
X90031842Y-18821184D01*
X90037293Y-18785413D01*
X90039747Y-18733831D01*
X90040286Y-18665733D01*
X90037852Y-18572412D01*
X90029394Y-18502343D01*
X90013174Y-18450069D01*
X89987454Y-18410131D01*
X89950497Y-18377071D01*
X89947782Y-18375114D01*
X89911360Y-18355092D01*
X89867502Y-18345185D01*
X89811724Y-18342743D01*
X89721048Y-18342743D01*
X89721010Y-18254717D01*
X89720166Y-18205692D01*
X89715024Y-18176935D01*
X89701587Y-18159689D01*
X89675858Y-18145192D01*
X89669679Y-18142231D01*
X89640764Y-18128352D01*
X89618376Y-18119586D01*
X89601729Y-18118829D01*
X89590036Y-18128977D01*
X89582510Y-18152927D01*
X89578366Y-18193574D01*
X89576815Y-18253814D01*
X89577071Y-18336545D01*
X89578349Y-18444661D01*
X89578748Y-18477000D01*
X89580185Y-18588476D01*
X89581472Y-18661397D01*
X89720971Y-18661397D01*
X89721755Y-18599501D01*
X89725240Y-18559003D01*
X89733124Y-18532292D01*
X89747105Y-18511756D01*
X89756597Y-18501740D01*
X89795404Y-18472433D01*
X89829763Y-18470048D01*
X89865216Y-18494250D01*
X89866114Y-18495143D01*
X89880539Y-18513847D01*
X89889313Y-18539268D01*
X89893739Y-18578416D01*
X89895118Y-18638303D01*
X89895143Y-18651570D01*
X89891812Y-18734099D01*
X89880969Y-18791309D01*
X89861340Y-18826234D01*
X89831650Y-18841906D01*
X89814491Y-18843486D01*
X89773766Y-18836074D01*
X89745832Y-18811670D01*
X89729017Y-18767020D01*
X89721650Y-18698870D01*
X89720971Y-18661397D01*
X89581472Y-18661397D01*
X89581708Y-18674755D01*
X89583677Y-18739667D01*
X89586450Y-18787042D01*
X89590388Y-18820710D01*
X89595849Y-18844502D01*
X89603192Y-18862247D01*
X89612777Y-18877776D01*
X89616887Y-18883619D01*
X89671405Y-18938815D01*
X89740336Y-18970110D01*
X89820072Y-18978835D01*
X89889744Y-18970082D01*
G04 #@! TO.C,JP3*
D14*
X102833333Y-68852380D02*
X102833333Y-69566666D01*
X102880952Y-69709523D01*
X102976190Y-69804761D01*
X103119047Y-69852380D01*
X103214285Y-69852380D01*
X102357142Y-69852380D02*
X102357142Y-68852380D01*
X101976190Y-68852380D01*
X101880952Y-68900000D01*
X101833333Y-68947619D01*
X101785714Y-69042857D01*
X101785714Y-69185714D01*
X101833333Y-69280952D01*
X101880952Y-69328571D01*
X101976190Y-69376190D01*
X102357142Y-69376190D01*
X101452380Y-68852380D02*
X100833333Y-68852380D01*
X101166666Y-69233333D01*
X101023809Y-69233333D01*
X100928571Y-69280952D01*
X100880952Y-69328571D01*
X100833333Y-69423809D01*
X100833333Y-69661904D01*
X100880952Y-69757142D01*
X100928571Y-69804761D01*
X101023809Y-69852380D01*
X101309523Y-69852380D01*
X101404761Y-69804761D01*
X101452380Y-69757142D01*
X43771877Y-20272790D02*
X43771877Y-20987076D01*
X43819496Y-21129933D01*
X43914734Y-21225171D01*
X44057591Y-21272790D01*
X44152829Y-21272790D01*
X43295686Y-21272790D02*
X43295686Y-20272790D01*
X42914734Y-20272790D01*
X42819496Y-20320410D01*
X42771877Y-20368029D01*
X42724258Y-20463267D01*
X42724258Y-20606124D01*
X42771877Y-20701362D01*
X42819496Y-20748981D01*
X42914734Y-20796600D01*
X43295686Y-20796600D01*
X42390924Y-20272790D02*
X41771877Y-20272790D01*
X42105210Y-20653743D01*
X41962353Y-20653743D01*
X41867115Y-20701362D01*
X41819496Y-20748981D01*
X41771877Y-20844219D01*
X41771877Y-21082314D01*
X41819496Y-21177552D01*
X41867115Y-21225171D01*
X41962353Y-21272790D01*
X42248067Y-21272790D01*
X42343305Y-21225171D01*
X42390924Y-21177552D01*
G04 #@! TD*
M02*
